<?xml version="1.0" encoding="UTF-8"?>
<!DOCTYPE svg PUBLIC "-//W3C//DTD SVG 1.1//EN" "http://www.w3.org/Graphics/SVG/1.1/DTD/svg11.dtd">
<svg xmlns="http://www.w3.org/2000/svg" version="1.1" width="600px" height="380px" style="shape-rendering:geometricPrecision; text-rendering:geometricPrecision; image-rendering:optimizeQuality; fill-rule:evenodd; clip-rule:evenodd" xmlns:xlink="http://www.w3.org/1999/xlink">
<g><path style="opacity:1" fill="#fdfefe" d="M -0.5,-0.5 C 199.5,-0.5 399.5,-0.5 599.5,-0.5C 599.5,126.167 599.5,252.833 599.5,379.5C 399.5,379.5 199.5,379.5 -0.5,379.5C -0.5,252.833 -0.5,126.167 -0.5,-0.5 Z"/></g>
<g><path style="opacity:1" fill="#246a81" d="M 148.5,43.5 C 151.626,48.045 152.793,53.045 152,58.5C 150.989,59.3366 149.822,59.67 148.5,59.5C 148.664,56.8127 148.497,54.146 148,51.5C 141.08,52.4122 137.913,49.4122 138.5,42.5C 142.114,39.6872 145.448,40.0205 148.5,43.5 Z"/></g>
<g><path style="opacity:1" fill="#a9c6ce" d="M 161.5,37.5 C 162.167,39.5 162.833,41.5 163.5,43.5C 160.765,47.7114 159.432,52.3781 159.5,57.5C 158.833,57.5 158.5,57.8333 158.5,58.5C 157.043,53.6218 157.877,48.9552 161,44.5C 161.497,42.1902 161.663,39.8568 161.5,37.5 Z"/></g>
<g><path style="opacity:1" fill="#216980" d="M 159.5,57.5 C 159.432,52.3781 160.765,47.7114 163.5,43.5C 165.978,40.301 168.978,39.801 172.5,42C 174.124,45.2056 173.458,47.8723 170.5,50C 168.236,50.2362 166.069,50.7362 164,51.5C 163.503,54.146 163.336,56.8127 163.5,59.5C 161.62,59.7709 160.287,59.1042 159.5,57.5 Z"/></g>
<g><path style="opacity:1" fill="#236a82" d="M 161.5,37.5 C 161.663,39.8568 161.497,42.1902 161,44.5C 157.877,48.9552 157.043,53.6218 158.5,58.5C 159.174,63.1514 161.841,64.6514 166.5,63C 168.378,61.4571 169.878,59.6238 171,57.5C 172.845,52.4816 174.679,47.4816 176.5,42.5C 177.192,48.5298 178.025,54.5298 179,60.5C 182.137,65.7385 185.471,65.7385 189,60.5C 191.19,55.4596 193.356,50.4596 195.5,45.5C 196.329,50.4671 196.829,55.4671 197,60.5C 197.689,63.8984 199.355,66.565 202,68.5C 209.504,63.8449 214.338,57.1783 216.5,48.5C 217.675,48.281 218.675,48.6143 219.5,49.5C 215.723,58.0535 212.223,66.7202 209,75.5C 208.653,77.1802 207.653,78.1802 206,78.5C 172.318,69.2302 138.651,69.2302 105,78.5C 100.274,69.3476 96.1069,59.8476 92.5,50C 92.9739,48.3925 93.6406,48.2258 94.5,49.5C 107.866,76.1549 114.533,74.8216 114.5,45.5C 115.5,45.5 116.5,45.5 117.5,45.5C 117.899,51.3048 119.733,56.6381 123,61.5C 128.018,66.1625 131.352,65.1625 133,58.5C 133.499,53.1771 133.666,47.8437 133.5,42.5C 134.5,42.5 135.5,42.5 136.5,42.5C 136.5,43.5 136.5,44.5 136.5,45.5C 138.115,51.8595 140.782,57.6928 144.5,63C 146.833,63.6667 149.167,63.6667 151.5,63C 154.524,55.7602 153.857,48.9268 149.5,42.5C 149.101,36.7123 151.101,32.0456 155.5,28.5C 159.118,30.4466 161.118,33.4466 161.5,37.5 Z"/></g>
<g><path style="opacity:1" fill="#ebf1f3" d="M 135.5,54.5 C 137.759,58.1226 140.426,61.6226 143.5,65C 149.034,66.7869 153.201,65.2869 156,60.5C 158.435,65.2238 162.269,66.7238 167.5,65C 168.931,64.5348 170.097,63.7014 171,62.5C 172.34,59.7981 173.673,57.1315 175,54.5C 179.645,71.0776 185.979,71.7443 194,56.5C 194.662,61.8245 196.495,66.6579 199.5,71C 204.08,71.4572 207.58,69.6239 210,65.5C 210.167,65.8333 210.333,66.1667 210.5,66.5C 208.853,69.8562 206.853,72.8562 204.5,75.5C 171.975,67.5737 139.475,67.5737 107,75.5C 104.07,73.6399 102.737,70.9733 103,67.5C 107.614,73.1713 111.614,72.838 115,66.5C 115.727,63.1358 116.56,59.8025 117.5,56.5C 119.519,61.6836 123.019,65.3503 128,67.5C 130.151,67.3569 131.818,66.3569 133,64.5C 134.461,61.3214 135.295,57.9881 135.5,54.5 Z"/></g>
<g><path style="opacity:1" fill="#e4edf0" d="M 138.5,42.5 C 137.913,49.4122 141.08,52.4122 148,51.5C 148.497,54.146 148.664,56.8127 148.5,59.5C 149.822,59.67 150.989,59.3366 152,58.5C 152.793,53.045 151.626,48.045 148.5,43.5C 149.167,43.5 149.5,43.1667 149.5,42.5C 153.857,48.9268 154.524,55.7602 151.5,63C 149.167,63.6667 146.833,63.6667 144.5,63C 140.782,57.6928 138.115,51.8595 136.5,45.5C 137.167,44.5 137.833,43.5 138.5,42.5 Z"/></g>
<g><path style="opacity:1" fill="#eaf1f3" d="M 167.5,42.5 C 168.5,42.5 169.5,42.5 170.5,42.5C 170.5,44.1667 170.5,45.8333 170.5,47.5C 164.201,48.1639 163.201,46.4972 167.5,42.5 Z"/></g>
<g><path style="opacity:1" fill="#e3ecef" d="M 141.5,42.5 C 144.272,42.5952 146.272,43.9285 147.5,46.5C 145.579,47.641 143.579,47.8077 141.5,47C 140.272,45.5098 140.272,44.0098 141.5,42.5 Z"/></g>
<g><path style="opacity:1" fill="#edf3f5" d="M 154.5,31.5 C 155.496,31.4142 156.329,31.7476 157,32.5C 160.592,38.5257 160.092,44.1924 155.5,49.5C 152.015,43.6396 151.682,37.6396 154.5,31.5 Z"/></g>
<g><path style="opacity:1" fill="#6699a8" d="M 357.5,96.5 C 358.919,95.5489 360.585,95.2155 362.5,95.5C 362.5,104.833 362.5,114.167 362.5,123.5C 361.507,114.682 361.173,105.682 361.5,96.5C 360.167,96.5 358.833,96.5 357.5,96.5 Z"/></g>
<g><path style="opacity:1" fill="#92b3be" d="M 423.5,96.5 C 425.265,95.5386 427.265,95.2053 429.5,95.5C 429.5,106.5 429.5,117.5 429.5,128.5C 428.506,118.013 428.172,107.346 428.5,96.5C 426.833,96.5 425.167,96.5 423.5,96.5 Z"/></g>
<g><path style="opacity:1" fill="#15667e" d="M 423.5,96.5 C 425.167,96.5 426.833,96.5 428.5,96.5C 428.172,107.346 428.506,118.013 429.5,128.5C 432.976,129.643 436.642,129.81 440.5,129C 441.781,127.591 442.781,126.091 443.5,124.5C 443.5,126.833 443.5,129.167 443.5,131.5C 436.833,131.5 430.167,131.5 423.5,131.5C 423.667,120.828 423.5,110.161 423,99.5C 416.952,97.7718 417.118,96.7718 423.5,96.5 Z"/></g>
<g><path style="opacity:1" fill="#1c687f" d="M 305.5,95.5 C 309.881,95.3718 314.215,95.7051 318.5,96.5C 318.762,97.9778 318.429,99.3112 317.5,100.5C 313.3,97.8636 309.133,97.8636 305,100.5C 304.294,102.971 304.627,105.305 306,107.5C 311.195,110.097 315.862,113.43 320,117.5C 322.068,128.269 317.568,133.269 306.5,132.5C 304.5,132.333 302.5,132.167 300.5,132C 299.446,130.612 299.28,129.112 300,127.5C 304.527,130.816 309.193,131.149 314,128.5C 315.373,126.305 315.706,123.971 315,121.5C 311.94,118.386 308.44,115.886 304.5,114C 297.535,107.269 297.869,101.102 305.5,95.5 Z"/></g>
<g><path style="opacity:1" fill="#1a677f" d="M 397.5,95.5 C 404.561,94.4562 410.061,96.7895 414,102.5C 416.183,110.935 415.85,119.268 413,127.5C 407.735,132.753 401.568,133.919 394.5,131C 392.622,129.457 391.122,127.624 390,125.5C 387.678,116.996 388.011,108.662 391,100.5C 392.965,98.4497 395.132,96.783 397.5,95.5 Z"/></g>
<g><path style="opacity:1" fill="#f4f8f9" d="M 398.5,98.5 C 404.912,97.4067 408.745,100.073 410,106.5C 410.758,112.891 410.424,119.224 409,125.5C 406.335,130.434 402.502,131.601 397.5,129C 395.962,127.068 394.795,124.901 394,122.5C 393.333,116.5 393.333,110.5 394,104.5C 395.332,102.34 396.832,100.34 398.5,98.5 Z"/></g>
<g><path style="opacity:1" fill="#256b82" d="M 70.5,273.5 C 70.0886,268.662 69.4219,263.995 68.5,259.5C 67.8511,240.173 67.5177,220.84 67.5,201.5C 77.5191,201.309 81.3524,196.309 79,186.5C 75.8881,179.721 71.0548,174.555 64.5,171C 60.1158,169.543 55.9491,167.71 52,165.5C 39.379,140.486 42.879,117.986 62.5,98C 63.5,97.3333 64.5,97.3333 65.5,98C 75.1009,110.4 87.1009,113.4 101.5,107C 108.508,101.197 110.175,94.1971 106.5,86C 106.833,85.5 107.167,85 107.5,84.5C 139.514,75.1899 171.514,75.3566 203.5,85C 204.428,85.3879 205.095,86.0546 205.5,87C 202.57,98.8087 206.903,106.475 218.5,110C 230.74,111.198 240.74,107.031 248.5,97.5C 269.922,116.787 274.088,139.454 261,165.5C 248.735,169.098 239.402,176.431 233,187.5C 232.162,196.332 236.162,201.332 245,202.5C 245.393,224.858 244.726,247.192 243,269.5C 239.199,293.292 226.365,310.125 204.5,320C 201.888,320.741 200.222,319.741 199.5,317C 191.844,311.462 183.511,310.129 174.5,313C 172.993,314.473 172.326,316.307 172.5,318.5C 172.879,321.582 173.546,324.582 174.5,327.5C 162.511,328.41 150.511,328.576 138.5,328C 137.978,327.439 137.645,326.772 137.5,326C 141.783,320.988 141.45,316.321 136.5,312C 125.825,309.448 116.991,312.282 110,320.5C 89.1029,311.428 75.9362,295.761 70.5,273.5 Z"/></g>
<g><path style="opacity:1" fill="#fafcfc" d="M 141.5,80.5 C 161.911,79.4639 181.911,81.7972 201.5,87.5C 200.789,106.954 210.122,115.454 229.5,113C 237.138,111.098 243.638,107.264 249,101.5C 265.87,119.488 269.204,139.822 259,162.5C 246.031,166.465 236.365,174.465 230,186.5C 228.422,196.069 232.256,202.069 241.5,204.5C 241.795,225.854 241.295,247.188 240,268.5C 236.316,290.837 224.316,306.837 204,316.5C 196.105,309.647 186.938,306.813 176.5,308C 169.34,311.484 167.007,316.984 169.5,324.5C 160.5,325.643 151.5,325.643 142.5,324.5C 145.644,316.558 143.311,311.058 135.5,308C 125.96,306.803 117.627,309.47 110.5,316C 109.167,316.667 107.833,316.667 106.5,316C 89.8403,307.183 79.007,293.683 74,275.5C 70.7815,251.917 69.9482,228.25 71.5,204.5C 83.9561,199.292 86.4561,190.958 79,179.5C 72.3836,171.776 64.2169,166.443 54.5,163.5C 43.0428,140.578 46.2094,119.911 64,101.5C 74.6979,114.015 87.5312,116.848 102.5,110C 110.413,104.43 113.08,96.9304 110.5,87.5C 112.369,86.3764 114.369,85.5431 116.5,85C 124.949,83.3458 133.282,81.8458 141.5,80.5 Z"/></g>
<g><path style="opacity:1" fill="#bacfd5" d="M 144.5,104.5 C 148.486,103.834 152.653,103.501 157,103.5C 163.731,103.353 170.231,104.02 176.5,105.5C 165.852,104.723 155.185,104.39 144.5,104.5 Z"/></g>
<g><path style="opacity:1" fill="#296d84" d="M 454.5,97.5 C 457.355,96.1968 460.355,96.1968 463.5,97.5C 468.29,108.87 472.29,120.537 475.5,132.5C 473.833,132.5 472.167,132.5 470.5,132.5C 469.909,129.06 468.909,125.727 467.5,122.5C 462.833,121.167 458.167,121.167 453.5,122.5C 451.688,125.603 450.688,128.936 450.5,132.5C 449.325,132.719 448.325,132.386 447.5,131.5C 451.451,120.317 454.784,108.984 457.5,97.5C 456.5,97.5 455.5,97.5 454.5,97.5 Z"/></g>
<g><path style="opacity:1" fill="#eaf1f3" d="M 459.5,103.5 C 462.648,107.923 464.648,112.923 465.5,118.5C 462.167,118.5 458.833,118.5 455.5,118.5C 456.424,113.393 457.758,108.393 459.5,103.5 Z"/></g>
<g><path style="opacity:1" fill="#18677e" d="M 334.5,95.5 C 340.526,94.6757 345.693,96.3424 350,100.5C 350.483,101.448 350.649,102.448 350.5,103.5C 348.5,103.5 346.5,103.5 344.5,103.5C 344.703,101.61 344.037,100.11 342.5,99C 336.531,97.2905 332.697,99.4571 331,105.5C 329.326,114.027 330.826,121.86 335.5,129C 339.88,130.973 344.214,130.806 348.5,128.5C 349.521,129.002 349.688,129.668 349,130.5C 342.672,133.192 336.506,133.026 330.5,130C 328.348,127.531 326.848,124.698 326,121.5C 325.333,115.833 325.333,110.167 326,104.5C 327.688,100.315 330.521,97.3148 334.5,95.5 Z"/></g>
<g><path style="opacity:1" fill="#1d6980" d="M 357.5,96.5 C 358.833,96.5 360.167,96.5 361.5,96.5C 361.173,105.682 361.507,114.682 362.5,123.5C 364.383,130.63 368.55,132.297 375,128.5C 375.862,126.913 376.529,125.246 377,123.5C 377.5,114.506 377.666,105.506 377.5,96.5C 378.5,96.5 379.5,96.5 380.5,96.5C 380.666,106.172 380.5,115.839 380,125.5C 378.149,131.012 374.316,133.345 368.5,132.5C 366.5,132.333 364.5,132.167 362.5,132C 361,130.5 359.5,129 358,127.5C 356.78,118.226 356.113,108.893 356,99.5C 350.266,97.487 350.766,96.487 357.5,96.5 Z"/></g>
<g><path style="opacity:1" fill="#81a7b3" d="M 443.5,124.5 C 444.473,126.948 444.806,129.615 444.5,132.5C 437.313,132.825 430.313,132.491 423.5,131.5C 430.167,131.5 436.833,131.5 443.5,131.5C 443.5,129.167 443.5,126.833 443.5,124.5 Z"/></g>
<g><path style="opacity:1" fill="#568c9c" d="M 384.5,159.5 C 379.305,159.179 374.305,159.513 369.5,160.5C 368.325,160.719 367.325,160.386 366.5,159.5C 372.654,158.183 378.654,158.183 384.5,159.5 Z"/></g>
<g><path style="opacity:1" fill="#12657d" d="M 369.5,160.5 C 374.305,159.513 379.305,159.179 384.5,159.5C 392.064,160.719 394.564,165.052 392,172.5C 390.533,174.993 388.367,176.66 385.5,177.5C 388.627,182.92 391.627,188.42 394.5,194C 392.421,194.808 390.421,194.641 388.5,193.5C 385.566,188.632 382.9,183.632 380.5,178.5C 379.432,177.566 378.099,177.232 376.5,177.5C 376.5,183.167 376.5,188.833 376.5,194.5C 374.833,194.5 373.167,194.5 371.5,194.5C 371.667,183.495 371.5,172.495 371,161.5C 370.617,160.944 370.117,160.611 369.5,160.5 Z"/></g>
<g><path style="opacity:1" fill="#f1f5f7" d="M 377.5,161.5 C 387.247,161.085 389.913,165.252 385.5,174C 382.649,175.289 379.649,175.789 376.5,175.5C 376.226,170.737 376.559,166.07 377.5,161.5 Z"/></g>
<g><path style="opacity:1" fill="#1d6880" d="M 446.5,158.5 C 449.777,158.216 452.943,158.549 456,159.5C 459.961,171.215 463.794,182.882 467.5,194.5C 465.833,194.5 464.167,194.5 462.5,194.5C 461.909,191.06 460.909,187.727 459.5,184.5C 454.88,183.507 450.214,183.173 445.5,183.5C 444.909,186.94 443.909,190.273 442.5,193.5C 441.5,194.833 440.5,194.833 439.5,193.5C 443.396,182.478 447.063,171.478 450.5,160.5C 448.517,160.843 447.183,160.176 446.5,158.5 Z"/></g>
<g><path style="opacity:1" fill="#14677e" d="M 308.5,165.5 C 308.44,164.957 308.107,164.624 307.5,164.5C 306.501,174.478 306.168,184.478 306.5,194.5C 304.685,183.879 303.852,172.879 304,161.5C 302.491,160.91 300.991,160.244 299.5,159.5C 303.045,158.209 306.545,158.209 310,159.5C 314.746,168.661 319.746,177.661 325,186.5C 325.5,177.173 325.666,167.839 325.5,158.5C 326.5,158.5 327.5,158.5 328.5,158.5C 328.5,170.5 328.5,182.5 328.5,194.5C 325.675,194.838 323.508,193.838 322,191.5C 317.24,182.924 312.74,174.257 308.5,165.5 Z"/></g>
<g><path style="opacity:1" fill="#15657d" d="M 469.5,158.5 C 472.833,158.5 476.167,158.5 479.5,158.5C 479.333,169.505 479.5,180.505 480,191.5C 483.409,192.622 486.909,192.789 490.5,192C 492.049,190.786 493.215,189.286 494,187.5C 494.497,189.81 494.663,192.143 494.5,194.5C 487.833,194.5 481.167,194.5 474.5,194.5C 474.667,183.828 474.5,173.161 474,162.5C 472.141,161.421 470.641,160.088 469.5,158.5 Z"/></g>
<g><path style="opacity:1" fill="#1a667e" d="M 514.5,177.5 C 512.052,176.527 509.385,176.194 506.5,176.5C 506.179,181.695 506.513,186.695 507.5,191.5C 510.64,192.641 513.973,192.808 517.5,192C 519.049,190.786 520.215,189.286 521,187.5C 521.497,189.81 521.663,192.143 521.5,194.5C 514.833,194.5 508.167,194.5 501.5,194.5C 501.667,183.495 501.5,172.495 501,161.5C 499.491,160.91 497.991,160.244 496.5,159.5C 504.472,158.502 512.472,158.169 520.5,158.5C 520.664,161.187 520.497,163.854 520,166.5C 519.727,164.671 518.893,163.171 517.5,162C 513.848,161.501 510.182,161.335 506.5,161.5C 506.5,165.833 506.5,170.167 506.5,174.5C 509.518,174.665 512.518,174.498 515.5,174C 516.071,172.795 516.738,171.628 517.5,170.5C 518.659,174.122 518.825,177.789 518,181.5C 517.34,179.676 516.173,178.343 514.5,177.5 Z"/></g>
<g><path style="opacity:1" fill="#e4ecef" d="M 451.5,166.5 C 452.376,166.369 453.043,166.702 453.5,167.5C 454.97,171.912 456.637,176.245 458.5,180.5C 454.893,181.489 451.226,181.823 447.5,181.5C 448.424,176.393 449.758,171.393 451.5,166.5 Z"/></g>
<g><path style="opacity:1" fill="#74a2ae" d="M 308.5,165.5 C 307.833,175.167 307.167,184.833 306.5,194.5C 306.168,184.478 306.501,174.478 307.5,164.5C 308.107,164.624 308.44,164.957 308.5,165.5 Z"/></g>
<g><path style="opacity:1" fill="#216980" d="M 429.5,194.5 C 429.832,184.145 429.499,173.812 428.5,163.5C 427.702,163.957 427.369,164.624 427.5,165.5C 424.04,175 421.04,184.666 418.5,194.5C 417.167,194.5 415.833,194.5 414.5,194.5C 411.898,185.028 408.898,175.695 405.5,166.5C 405.631,165.624 405.298,164.957 404.5,164.5C 403.501,174.478 403.168,184.478 403.5,194.5C 402.5,194.5 401.5,194.5 400.5,194.5C 400.667,183.495 400.5,172.495 400,161.5C 398.745,160.789 397.579,159.956 396.5,159C 400.152,158.501 403.818,158.335 407.5,158.5C 409.994,168.151 413.161,177.485 417,186.5C 420.864,177.408 424.031,168.074 426.5,158.5C 428.833,158.5 431.167,158.5 433.5,158.5C 433.5,170.5 433.5,182.5 433.5,194.5C 432.167,194.5 430.833,194.5 429.5,194.5 Z"/></g>
<g><path style="opacity:1" fill="#8db2bd" d="M 405.5,166.5 C 404.833,175.833 404.167,185.167 403.5,194.5C 403.168,184.478 403.501,174.478 404.5,164.5C 405.298,164.957 405.631,165.624 405.5,166.5 Z"/></g>
<g><path style="opacity:1" fill="#7aa6b1" d="M 429.5,194.5 C 428.833,184.833 428.167,175.167 427.5,165.5C 427.369,164.624 427.702,163.957 428.5,163.5C 429.499,173.812 429.832,184.145 429.5,194.5 Z"/></g>
<g><path style="opacity:1" fill="#b0cad1" d="M 380.5,178.5 C 379.5,178.5 378.5,178.5 377.5,178.5C 377.821,184.026 377.488,189.36 376.5,194.5C 376.5,188.833 376.5,183.167 376.5,177.5C 378.099,177.232 379.432,177.566 380.5,178.5 Z"/></g>
<g><path style="opacity:1" fill="#a3bfc7" d="M 514.5,177.5 C 512.167,177.5 509.833,177.5 507.5,177.5C 507.5,182.167 507.5,186.833 507.5,191.5C 506.513,186.695 506.179,181.695 506.5,176.5C 509.385,176.194 512.052,176.527 514.5,177.5 Z"/></g>
<g><path style="opacity:1" fill="#1b687f" d="M 343.5,158.5 C 352.703,156.094 359.203,159.094 363,167.5C 364.457,176.106 363.29,184.273 359.5,192C 348.788,198.577 341.288,196.077 337,184.5C 336.333,178.5 336.333,172.5 337,166.5C 338.479,163.172 340.645,160.506 343.5,158.5 Z"/></g>
<g><path style="opacity:1" fill="#f4f8f9" d="M 346.5,160.5 C 352.862,159.594 356.695,162.26 358,168.5C 358.988,175.668 358.322,182.668 356,189.5C 349.043,194.636 344.377,192.97 342,184.5C 341.333,178.833 341.333,173.167 342,167.5C 343.012,164.798 344.512,162.465 346.5,160.5 Z"/></g>
<g><path style="opacity:1" fill="#afcad1" d="M 327.5,219.5 C 329.265,218.539 331.265,218.205 333.5,218.5C 333.5,228.167 333.5,237.833 333.5,247.5C 332.506,238.348 332.173,229.015 332.5,219.5C 330.833,219.5 329.167,219.5 327.5,219.5 Z"/></g>
<g><path style="opacity:1" fill="#206b82" d="M 327.5,219.5 C 329.167,219.5 330.833,219.5 332.5,219.5C 332.173,229.015 332.506,238.348 333.5,247.5C 334.56,253.095 337.893,254.929 343.5,253C 344.333,252.167 345.167,251.333 346,250.5C 347.451,240.271 347.951,229.938 347.5,219.5C 348.833,219.5 350.167,219.5 351.5,219.5C 351.666,228.839 351.5,238.173 351,247.5C 349.034,253.55 344.868,256.217 338.5,255.5C 333.571,255.953 330.071,253.953 328,249.5C 327.667,240.5 327.333,231.5 327,222.5C 320.952,220.772 321.118,219.772 327.5,219.5 Z"/></g>
<g><path style="opacity:1" fill="#0e637a" d="M 373.5,238.5 C 371.143,238.663 368.81,238.497 366.5,238C 368.382,237.802 370.048,237.302 371.5,236.5C 376.107,234.228 377.607,230.562 376,225.5C 373.633,221.697 370.466,220.697 366.5,222.5C 366.019,227.662 365.019,232.829 363.5,238C 365.341,243.31 366.008,248.81 365.5,254.5C 364.167,254.5 362.833,254.5 361.5,254.5C 361.828,243.654 361.494,232.987 360.5,222.5C 359.653,221.034 358.32,220.2 356.5,220C 362.833,219.333 369.167,219.333 375.5,220C 381.702,223.622 383.202,228.788 380,235.5C 378.266,237.451 376.099,238.451 373.5,238.5 Z"/></g>
<g><path style="opacity:1" fill="#f3f7f8" d="M 371.5,236.5 C 369.833,236.5 368.167,236.5 366.5,236.5C 366.5,231.833 366.5,227.167 366.5,222.5C 370.466,220.697 373.633,221.697 376,225.5C 377.607,230.562 376.107,234.228 371.5,236.5 Z"/></g>
<g><path style="opacity:1" fill="#10637b" d="M 394.5,222.5 C 393.515,226.634 393.182,230.968 393.5,235.5C 396.385,235.806 399.052,235.473 401.5,234.5C 402.728,233.694 403.728,232.694 404.5,231.5C 404.806,234.385 404.473,237.052 403.5,239.5C 403.389,238.883 403.056,238.383 402.5,238C 399.518,237.502 396.518,237.335 393.5,237.5C 393.5,242.5 393.5,247.5 393.5,252.5C 397.514,252.666 401.514,252.499 405.5,252C 406.252,251.329 406.586,250.496 406.5,249.5C 407.451,250.919 407.784,252.585 407.5,254.5C 401.167,254.5 394.833,254.5 388.5,254.5C 388.828,243.654 388.494,232.987 387.5,222.5C 386.653,221.034 385.32,220.2 383.5,220C 391.493,219.5 399.493,219.334 407.5,219.5C 407.808,221.924 407.474,224.257 406.5,226.5C 405.772,224.807 404.772,223.307 403.5,222C 400.304,221.195 397.304,221.362 394.5,222.5 Z"/></g>
<g><path style="opacity:1" fill="#10637a" d="M 446.5,219.5 C 447.833,219.5 449.167,219.5 450.5,219.5C 450.5,231.167 450.5,242.833 450.5,254.5C 449.167,254.5 447.833,254.5 446.5,254.5C 446.828,243.986 446.494,233.653 445.5,223.5C 444.21,222.065 442.544,221.065 440.5,220.5C 442.396,219.534 444.396,219.201 446.5,219.5 Z"/></g>
<g><path style="opacity:1" fill="#19637c" d="M 529.5,222.5 C 528.515,226.634 528.182,230.968 528.5,235.5C 531.713,235.81 534.713,235.477 537.5,234.5C 538.79,233.942 539.623,232.942 540,231.5C 540.667,234.833 540.667,238.167 540,241.5C 539.535,240.069 538.701,238.903 537.5,238C 534.854,237.503 532.187,237.336 529.5,237.5C 529.5,242.5 529.5,247.5 529.5,252.5C 533.182,252.665 536.848,252.499 540.5,252C 541.893,250.829 542.727,249.329 543,247.5C 543.497,249.81 543.663,252.143 543.5,254.5C 537.167,254.5 530.833,254.5 524.5,254.5C 524.828,243.986 524.494,233.653 523.5,223.5C 523.244,221.224 521.91,220.057 519.5,220C 527.159,219.5 534.826,219.334 542.5,219.5C 542.663,221.857 542.497,224.19 542,226.5C 541.727,224.671 540.893,223.171 539.5,222C 535.973,221.192 532.64,221.359 529.5,222.5 Z"/></g>
<g><path style="opacity:1" fill="#6899a8" d="M 446.5,219.5 C 447.919,218.549 449.585,218.216 451.5,218.5C 451.5,230.833 451.5,243.167 451.5,255.5C 449.5,255.5 447.5,255.5 445.5,255.5C 445.5,244.833 445.5,234.167 445.5,223.5C 446.494,233.653 446.828,243.986 446.5,254.5C 447.833,254.5 449.167,254.5 450.5,254.5C 450.5,242.833 450.5,231.167 450.5,219.5C 449.167,219.5 447.833,219.5 446.5,219.5 Z"/></g>
<g><path style="opacity:1" fill="#b8cdd4" d="M 493.5,222.5 C 494.494,232.987 494.828,243.654 494.5,254.5C 496.167,254.5 497.833,254.5 499.5,254.5C 499.5,249.167 499.5,243.833 499.5,238.5C 501.099,238.232 502.432,238.566 503.5,239.5C 502.5,239.5 501.5,239.5 500.5,239.5C 500.5,244.833 500.5,250.167 500.5,255.5C 498.167,255.5 495.833,255.5 493.5,255.5C 493.5,244.5 493.5,233.5 493.5,222.5 Z"/></g>
<g><path style="opacity:1" fill="#4d8b9c" d="M 523.5,223.5 C 524.494,233.653 524.828,243.986 524.5,254.5C 530.833,254.5 537.167,254.5 543.5,254.5C 537.021,255.491 530.354,255.824 523.5,255.5C 523.5,244.833 523.5,234.167 523.5,223.5 Z"/></g>
<g><path style="opacity:1" fill="#709eac" d="M 415.5,222.5 C 416.494,232.987 416.828,243.654 416.5,254.5C 417.833,254.5 419.167,254.5 420.5,254.5C 420.179,248.974 420.512,243.64 421.5,238.5C 421.5,244.167 421.5,249.833 421.5,255.5C 419.5,255.5 417.5,255.5 415.5,255.5C 415.5,244.5 415.5,233.5 415.5,222.5 Z"/></g>
<g><path style="opacity:1" fill="#1d6980" d="M 305.5,218.5 C 309.881,218.372 314.215,218.705 318.5,219.5C 318.762,220.978 318.429,222.311 317.5,223.5C 313.3,220.864 309.133,220.864 305,223.5C 304.294,225.971 304.627,228.305 306,230.5C 311.195,233.097 315.862,236.43 320,240.5C 322.126,251.043 317.793,256.043 307,255.5C 304.833,255.333 302.667,255.167 300.5,255C 299.446,253.612 299.28,252.112 300,250.5C 304.527,253.816 309.193,254.149 314,251.5C 316.613,246.59 315.447,242.756 310.5,240C 302.016,237.541 298.516,232.041 300,223.5C 301.73,221.598 303.563,219.931 305.5,218.5 Z"/></g>
<g><path style="opacity:1" fill="#1b677e" d="M 421.5,238.5 C 420.512,243.64 420.179,248.974 420.5,254.5C 419.167,254.5 417.833,254.5 416.5,254.5C 416.828,243.654 416.494,232.987 415.5,222.5C 414.653,221.034 413.32,220.2 411.5,220C 417.5,219.333 423.5,219.333 429.5,220C 437.485,222.089 439.652,226.923 436,234.5C 433.863,235.479 432.029,236.812 430.5,238.5C 433.167,243.833 435.833,249.167 438.5,254.5C 436.926,255.631 435.259,255.798 433.5,255C 430.794,249.753 427.96,244.586 425,239.5C 423.989,238.663 422.822,238.33 421.5,238.5 Z"/></g>
<g><path style="opacity:1" fill="#f1f6f7" d="M 422.5,221.5 C 432.563,222.054 434.897,226.554 429.5,235C 426.854,235.497 424.187,235.664 421.5,235.5C 421.226,230.737 421.559,226.07 422.5,221.5 Z"/></g>
<g><path style="opacity:1" fill="#15647c" d="M 503.5,239.5 C 502.432,238.566 501.099,238.232 499.5,238.5C 499.5,243.833 499.5,249.167 499.5,254.5C 497.833,254.5 496.167,254.5 494.5,254.5C 494.828,243.654 494.494,232.987 493.5,222.5C 492.653,221.034 491.32,220.2 489.5,220C 496.899,219.152 504.233,219.485 511.5,221C 515.277,223.955 516.443,227.788 515,232.5C 513.471,235.266 511.304,237.266 508.5,238.5C 511.5,243.833 514.5,249.167 517.5,254.5C 515.5,255.833 513.5,255.833 511.5,254.5C 508.805,249.483 506.138,244.483 503.5,239.5 Z"/></g>
<g><path style="opacity:1" fill="#eff3f5" d="M 500.5,221.5 C 508.775,220.706 511.942,224.373 510,232.5C 507.303,235.87 503.803,237.204 499.5,236.5C 499.221,231.405 499.555,226.405 500.5,221.5 Z"/></g>
<g><path style="opacity:1" fill="#6f9fad" d="M 404.5,231.5 C 405.808,235.019 405.808,238.685 404.5,242.5C 403.614,241.675 403.281,240.675 403.5,239.5C 404.473,237.052 404.806,234.385 404.5,231.5 Z"/></g>
<g><path style="opacity:1" fill="#b9cfd6" d="M 394.5,222.5 C 394.5,226.5 394.5,230.5 394.5,234.5C 396.833,234.5 399.167,234.5 401.5,234.5C 399.052,235.473 396.385,235.806 393.5,235.5C 393.182,230.968 393.515,226.634 394.5,222.5 Z"/></g>
<g><path style="opacity:1" fill="#9dbac3" d="M 529.5,222.5 C 529.5,226.5 529.5,230.5 529.5,234.5C 532.167,234.5 534.833,234.5 537.5,234.5C 534.713,235.477 531.713,235.81 528.5,235.5C 528.182,230.968 528.515,226.634 529.5,222.5 Z"/></g>
<g><path style="opacity:1" fill="#538e9e" d="M 360.5,222.5 C 361.494,232.987 361.828,243.654 361.5,254.5C 362.833,254.5 364.167,254.5 365.5,254.5C 366.008,248.81 365.341,243.31 363.5,238C 365.019,232.829 366.019,227.662 366.5,222.5C 366.5,227.167 366.5,231.833 366.5,236.5C 368.167,236.5 369.833,236.5 371.5,236.5C 370.048,237.302 368.382,237.802 366.5,238C 368.81,238.497 371.143,238.663 373.5,238.5C 371.393,239.468 369.059,239.802 366.5,239.5C 366.5,244.833 366.5,250.167 366.5,255.5C 364.5,255.5 362.5,255.5 360.5,255.5C 360.5,244.5 360.5,233.5 360.5,222.5 Z"/></g>
<g><path style="opacity:1" fill="#206980" d="M 467.5,218.5 C 476.542,216.767 482.709,220.101 486,228.5C 487.217,236.495 486.217,244.161 483,251.5C 481.681,253.487 479.848,254.654 477.5,255C 468.494,257.417 462.661,254.251 460,245.5C 458.874,237.955 459.54,230.621 462,223.5C 463.73,221.598 465.563,219.931 467.5,218.5 Z"/></g>
<g><path style="opacity:1" fill="#f8fafb" d="M 468.5,221.5 C 473.742,220.271 477.575,221.937 480,226.5C 480.667,233.833 480.667,241.167 480,248.5C 476.455,254.209 472.121,254.875 467,250.5C 464.579,243.015 463.912,235.348 465,227.5C 465.926,225.308 467.093,223.308 468.5,221.5 Z"/></g>
<g><path style="opacity:1" fill="#8bb1bb" d="M 387.5,222.5 C 388.494,232.987 388.828,243.654 388.5,254.5C 394.833,254.5 401.167,254.5 407.5,254.5C 407.784,252.585 407.451,250.919 406.5,249.5C 406.369,248.624 406.702,247.957 407.5,247.5C 408.48,250.086 408.813,252.753 408.5,255.5C 401.5,255.5 394.5,255.5 387.5,255.5C 387.5,244.5 387.5,233.5 387.5,222.5 Z"/></g>
<g><path style="opacity:1" fill="#bacfd5" d="M 68.5,259.5 C 69.4219,263.995 70.0886,268.662 70.5,273.5C 69.7321,272.737 69.2321,271.737 69,270.5C 68.5014,266.848 68.3347,263.182 68.5,259.5 Z"/></g>
<g><path style="opacity:1" fill="#236980" d="M 144.5,104.5 C 155.185,104.39 165.852,104.723 176.5,105.5C 193.18,108.423 207.68,115.757 220,127.5C 222.732,131.241 225.066,135.241 227,139.5C 227.667,148.5 227.667,157.5 227,166.5C 224.216,179.627 220.883,192.627 217,205.5C 214.954,222.093 213.954,238.76 214,255.5C 213.155,275.996 203.322,290.163 184.5,298C 165.939,304.94 147.273,305.274 128.5,299C 110.377,291.888 100.21,278.721 98,259.5C 96.8155,244.865 96.1489,230.198 96,215.5C 93.4721,200.52 89.8054,185.854 85,171.5C 83.1642,160.475 83.1642,149.475 85,138.5C 94.5238,121.304 109.024,110.804 128.5,107C 133.743,105.522 139.076,104.688 144.5,104.5 Z"/></g>
<g><path style="opacity:1" fill="#fbfcfc" d="M 126.5,178.5 C 157.44,176.932 188.107,178.932 218.5,184.5C 212.206,208.025 209.706,232.025 211,256.5C 207.982,279.859 194.815,294.026 171.5,299C 150.019,303.706 130.686,299.373 113.5,286C 105.859,278.409 101.692,269.243 101,258.5C 101.938,233.341 99.1045,208.674 92.5,184.5C 103.922,182.264 115.255,180.264 126.5,178.5 Z"/></g>
<g><path style="opacity:1" fill="#2d6f85" d="M 151.5,269.5 C 166.672,269.864 171.172,276.864 165,290.5C 156.499,296.858 149.499,295.525 144,286.5C 143.333,283.5 143.333,280.5 144,277.5C 146.028,274.308 148.528,271.641 151.5,269.5 Z"/></g>
<g><path style="opacity:1" fill="#f8fafb" d="M 151.5,273.5 C 161.157,271.992 165.323,275.992 164,285.5C 163.215,287.286 162.049,288.786 160.5,290C 151.536,292.024 147.036,288.524 147,279.5C 148.332,277.34 149.832,275.34 151.5,273.5 Z"/></g>
<g><path style="opacity:1" fill="#256a81" d="M 118.5,249.5 C 131.582,249.064 136.748,255.064 134,267.5C 129.914,273.118 124.414,274.951 117.5,273C 107.849,264.73 108.182,256.897 118.5,249.5 Z"/></g>
<g><path style="opacity:1" fill="#1d677f" d="M 184.5,249.5 C 196.891,248.721 202.058,254.387 200,266.5C 196.345,273.07 190.845,275.237 183.5,273C 176.93,269.345 174.763,263.845 177,256.5C 179.396,253.933 181.896,251.6 184.5,249.5 Z"/></g>
<g><path style="opacity:1" fill="#f4f7f8" d="M 185.5,252.5 C 194.53,252.358 198.363,256.692 197,265.5C 194.103,270.155 189.937,271.655 184.5,270C 177.642,263.676 177.976,257.843 185.5,252.5 Z"/></g>
<g><path style="opacity:1" fill="#f8fafb" d="M 120.5,252.5 C 129.508,253.01 133.008,257.677 131,266.5C 125.593,271.765 120.26,271.765 115,266.5C 113.025,260.177 114.858,255.51 120.5,252.5 Z"/></g>
<g><path style="opacity:1" fill="#226880" d="M 116.5,207.5 C 127.719,206.561 133.219,211.561 133,222.5C 129.672,230.285 123.839,233.118 115.5,231C 105.932,222.717 106.266,214.884 116.5,207.5 Z"/></g>
<g><path style="opacity:1" fill="#f4f7f8" d="M 117.5,210.5 C 127.157,209.658 130.99,213.991 129,223.5C 126.459,228.069 122.625,229.569 117.5,228C 109.555,222.17 109.555,216.336 117.5,210.5 Z"/></g>
<g><path style="opacity:1" fill="#216a81" d="M 185.5,207.5 C 198.374,206.206 203.874,211.872 202,224.5C 198.235,230.76 192.735,232.927 185.5,231C 179.627,227.061 177.46,221.561 179,214.5C 180.694,211.642 182.861,209.309 185.5,207.5 Z"/></g>
<g><path style="opacity:1" fill="#f6f9fa" d="M 187.5,210.5 C 196.53,210.358 200.363,214.692 199,223.5C 192.914,230.345 187.247,230.012 182,222.5C 180.873,217.089 182.707,213.089 187.5,210.5 Z"/></g>
<g><path style="opacity:1" fill="#226980" d="M 151.5,182.5 C 165.494,182.292 170.327,188.625 166,201.5C 161.86,206.211 156.694,207.711 150.5,206C 140.849,197.73 141.182,189.897 151.5,182.5 Z"/></g>
<g><path style="opacity:1" fill="#f4f8f8" d="M 152.5,185.5 C 161.53,185.358 165.363,189.692 164,198.5C 161.103,203.155 156.937,204.655 151.5,203C 144.642,196.676 144.976,190.843 152.5,185.5 Z"/></g>
<g><path style="opacity:1" fill="#f8fafb" d="M 138.5,107.5 C 158.463,105.556 177.796,108.056 196.5,115C 209.298,120.132 218.464,128.965 224,141.5C 225.407,154.77 224.241,167.77 220.5,180.5C 219.5,180.833 218.5,181.167 217.5,181.5C 184.061,175.37 150.394,173.87 116.5,177C 107.834,178.614 99.1671,180.114 90.5,181.5C 87.593,168.987 86.4263,156.32 87,143.5C 90.5321,131.965 97.6987,123.465 108.5,118C 118.158,113.171 128.158,109.671 138.5,107.5 Z"/></g>
<g><path style="opacity:1" fill="#216980" d="M 142.5,111.5 C 147.227,112.697 151.56,114.697 155.5,117.5C 159.741,115.212 164.074,113.212 168.5,111.5C 165.698,120.574 162.698,129.574 159.5,138.5C 170.456,136.53 181.456,134.696 192.5,133C 200.159,132.5 207.826,132.334 215.5,132.5C 215.657,133.873 215.49,135.207 215,136.5C 211.651,139.682 208.484,143.015 205.5,146.5C 209.631,151.772 212.965,157.439 215.5,163.5C 206.137,158.487 196.47,153.987 186.5,150C 177.759,146.952 168.759,145.118 159.5,144.5C 162.028,152.247 164.861,159.913 168,167.5C 168.798,169.259 168.631,170.926 167.5,172.5C 163.5,170.167 159.5,167.833 155.5,165.5C 151.547,168.641 147.214,170.975 142.5,172.5C 145.117,163.095 148.45,153.928 152.5,145C 133.175,145.998 115.508,151.998 99.5,163C 98.0563,163.781 96.723,163.614 95.5,162.5C 98.8482,157.128 102.182,151.795 105.5,146.5C 102.925,142.418 99.7585,138.751 96,135.5C 95.3828,134.551 95.5494,133.718 96.5,133C 115.312,132.664 133.812,134.831 152,139.5C 149.355,130.067 146.189,120.734 142.5,111.5 Z"/></g>
<g><path style="opacity:1" fill="#e9f0f2" d="M 155.5,147.5 C 158.454,152.483 160.954,157.816 163,163.5C 163.667,164.5 163.667,165.5 163,166.5C 160.543,165.022 158.043,163.689 155.5,162.5C 153.041,163.564 150.708,164.898 148.5,166.5C 149.774,160.033 152.107,153.7 155.5,147.5 Z"/></g>
<g><path style="opacity:1" fill="#f2f6f7" d="M 195.5,136.5 C 200.363,136.181 205.03,136.514 209.5,137.5C 206.321,139.846 203.654,142.679 201.5,146C 203.093,149.262 205.093,152.262 207.5,155C 201.388,153.29 195.388,150.956 189.5,148C 181.73,145.81 174.063,143.477 166.5,141C 176.069,138.8 185.735,137.3 195.5,136.5 Z"/></g>
<g><path style="opacity:1" fill="#f0f5f6" d="M 101.5,135.5 C 116.276,136.444 130.943,138.278 145.5,141C 131.421,143.529 118.088,148.362 105.5,155.5C 105.167,155.167 104.833,154.833 104.5,154.5C 106.382,151.787 108.049,148.953 109.5,146C 106.607,142.616 103.941,139.116 101.5,135.5 Z"/></g>
<g><path style="opacity:1" fill="#93b4be" d="M 195.5,136.5 C 200.348,135.186 205.348,135.186 210.5,136.5C 210.376,137.107 210.043,137.44 209.5,137.5C 205.03,136.514 200.363,136.181 195.5,136.5 Z"/></g>
<g><path style="opacity:1" fill="#edf3f5" d="M 147.5,118.5 C 147.56,117.957 147.893,117.624 148.5,117.5C 150.884,119.051 153.384,120.385 156,121.5C 158.234,120.299 160.401,118.965 162.5,117.5C 161.157,123.918 158.823,130.252 155.5,136.5C 153.335,130.179 150.668,124.179 147.5,118.5 Z"/></g>
</svg>
