<?xml version="1.0" encoding="UTF-8" standalone="no"?>
<!-- Created with Inkscape (http://www.inkscape.org/) -->

<svg
   width="210mm"
   height="297mm"
   viewBox="0 0 210 297"
   version="1.1"
   id="svg1"
   sodipodi:docname="wzb2.svg"
   inkscape:version="1.3 (0e150ed, 2023-07-21)"
   xmlns:inkscape="http://www.inkscape.org/namespaces/inkscape"
   xmlns:sodipodi="http://sodipodi.sourceforge.net/DTD/sodipodi-0.dtd"
   xmlns="http://www.w3.org/2000/svg"
   xmlns:svg="http://www.w3.org/2000/svg">
  <sodipodi:namedview
     id="namedview1"
     pagecolor="#ffffff"
     bordercolor="#000000"
     borderopacity="0.25"
     inkscape:showpageshadow="2"
     inkscape:pageopacity="0.0"
     inkscape:pagecheckerboard="0"
     inkscape:deskcolor="#d1d1d1"
     inkscape:document-units="mm"
     inkscape:zoom="0.2102413"
     inkscape:cx="397.16269"
     inkscape:cy="558.88162"
     inkscape:window-width="1440"
     inkscape:window-height="848"
     inkscape:window-x="0"
     inkscape:window-y="1132"
     inkscape:window-maximized="0"
     inkscape:current-layer="layer1" />
  <defs
     id="defs1">
    <clipPath
       clipPathUnits="userSpaceOnUse"
       id="clipPath72">
      <path
         d="M 0,85.04 H 170.08 V 0 H 0 Z"
         transform="translate(-41.554201,-15.092801)"
         id="path72" />
    </clipPath>
    <clipPath
       clipPathUnits="userSpaceOnUse"
       id="clipPath70">
      <path
         d="M 0,85.04 H 170.08 V 0 H 0 Z"
         transform="translate(-35.345701,-17.9697)"
         id="path70" />
    </clipPath>
    <clipPath
       clipPathUnits="userSpaceOnUse"
       id="clipPath68">
      <path
         d="M 0,85.04 H 170.08 V 0 H 0 Z"
         transform="translate(-31.457501,-10.991201)"
         id="path68" />
    </clipPath>
    <clipPath
       clipPathUnits="userSpaceOnUse"
       id="clipPath66">
      <path
         d="M 0,85.04 H 170.08 V 0 H 0 Z"
         transform="translate(-27.019,-10.991201)"
         id="path66" />
    </clipPath>
    <clipPath
       clipPathUnits="userSpaceOnUse"
       id="clipPath64">
      <path
         d="M 0,85.04 H 170.08 V 0 H 0 Z"
         transform="translate(-24.2866,-15.391601)"
         id="path64" />
    </clipPath>
    <clipPath
       clipPathUnits="userSpaceOnUse"
       id="clipPath62">
      <path
         d="M 0,85.04 H 170.08 V 0 H 0 Z"
         transform="translate(-17.6851,-14.385701)"
         id="path62" />
    </clipPath>
    <clipPath
       clipPathUnits="userSpaceOnUse"
       id="clipPath60">
      <path
         d="M 0,85.04 H 170.08 V 0 H 0 Z"
         transform="translate(-152.72271,-22.991201)"
         id="path60" />
    </clipPath>
    <clipPath
       clipPathUnits="userSpaceOnUse"
       id="clipPath58">
      <path
         d="M 0,85.04 H 170.08 V 0 H 0 Z"
         transform="translate(-149.9004,-27.391601)"
         id="path58" />
    </clipPath>
    <clipPath
       clipPathUnits="userSpaceOnUse"
       id="clipPath56">
      <path
         d="M 0,85.04 H 170.08 V 0 H 0 Z"
         transform="translate(-143.875,-27.460001)"
         id="path56" />
    </clipPath>
    <clipPath
       clipPathUnits="userSpaceOnUse"
       id="clipPath54">
      <path
         d="M 0,85.04 H 170.08 V 0 H 0 Z"
         transform="translate(-141.69531,-27.092801)"
         id="path54" />
    </clipPath>
    <clipPath
       clipPathUnits="userSpaceOnUse"
       id="clipPath52">
      <path
         d="M 0,85.04 H 170.08 V 0 H 0 Z"
         transform="translate(-135.05271,-27.391601)"
         id="path52" />
    </clipPath>
    <clipPath
       clipPathUnits="userSpaceOnUse"
       id="clipPath50">
      <path
         d="M 0,85.04 H 170.08 V 0 H 0 Z"
         transform="translate(-131.9707,-29.133801)"
         id="path50" />
    </clipPath>
    <clipPath
       clipPathUnits="userSpaceOnUse"
       id="clipPath48">
      <path
         d="M 0,85.04 H 170.08 V 0 H 0 Z"
         transform="translate(-118.35351,-22.991201)"
         id="path48" />
    </clipPath>
    <clipPath
       clipPathUnits="userSpaceOnUse"
       id="clipPath46">
      <path
         d="M 0,85.04 H 170.08 V 0 H 0 Z"
         transform="translate(-117.6172,-23.133801)"
         id="path46" />
    </clipPath>
    <clipPath
       clipPathUnits="userSpaceOnUse"
       id="clipPath44">
      <path
         d="M 0,85.04 H 170.08 V 0 H 0 Z"
         transform="translate(-109.25781,-22.991201)"
         id="path44" />
    </clipPath>
    <clipPath
       clipPathUnits="userSpaceOnUse"
       id="clipPath42">
      <path
         d="M 0,85.04 H 170.08 V 0 H 0 Z"
         transform="translate(-106.084,-23.2803)"
         id="path42" />
    </clipPath>
    <clipPath
       clipPathUnits="userSpaceOnUse"
       id="clipPath40">
      <path
         d="M 0,85.04 H 170.08 V 0 H 0 Z"
         transform="translate(-101.4102,-27.391601)"
         id="path40" />
    </clipPath>
    <clipPath
       clipPathUnits="userSpaceOnUse"
       id="clipPath38">
      <path
         d="M 0,85.04 H 170.08 V 0 H 0 Z"
         transform="translate(-94.632805,-23.792001)"
         id="path38" />
    </clipPath>
    <clipPath
       clipPathUnits="userSpaceOnUse"
       id="clipPath36">
      <path
         d="M 0,85.04 H 170.08 V 0 H 0 Z"
         transform="translate(-91.7227,-27.391601)"
         id="path36" />
    </clipPath>
    <clipPath
       clipPathUnits="userSpaceOnUse"
       id="clipPath34">
      <path
         d="M 0,85.04 H 170.08 V 0 H 0 Z"
         transform="translate(-84.872605,-26.444301)"
         id="path34" />
    </clipPath>
    <clipPath
       clipPathUnits="userSpaceOnUse"
       id="clipPath32">
      <path
         d="M 0,85.04 H 170.08 V 0 H 0 Z"
         transform="translate(-77.622602,-27.391601)"
         id="path32" />
    </clipPath>
    <clipPath
       clipPathUnits="userSpaceOnUse"
       id="clipPath30">
      <path
         d="M 0,85.04 H 170.08 V 0 H 0 Z"
         transform="translate(-74.487802,-23.133801)"
         id="path30" />
    </clipPath>
    <clipPath
       clipPathUnits="userSpaceOnUse"
       id="clipPath28">
      <path
         d="M 0,85.04 H 170.08 V 0 H 0 Z"
         transform="translate(-68.391602,-27.092801)"
         id="path28" />
    </clipPath>
    <clipPath
       clipPathUnits="userSpaceOnUse"
       id="clipPath26">
      <path
         d="M 0,85.04 H 170.08 V 0 H 0 Z"
         transform="translate(-61.748501,-27.391601)"
         id="path26" />
    </clipPath>
    <clipPath
       clipPathUnits="userSpaceOnUse"
       id="clipPath24">
      <path
         d="M 0,85.04 H 170.08 V 0 H 0 Z"
         transform="translate(-57.056201,-29.9697)"
         id="path24" />
    </clipPath>
    <clipPath
       clipPathUnits="userSpaceOnUse"
       id="clipPath22">
      <path
         d="M 0,85.04 H 170.08 V 0 H 0 Z"
         transform="translate(-55.457002,-23.133801)"
         id="path22" />
    </clipPath>
    <clipPath
       clipPathUnits="userSpaceOnUse"
       id="clipPath20">
      <path
         d="M 0,85.04 H 170.08 V 0 H 0 Z"
         transform="translate(-46.116201,-23.8662)"
         id="path20" />
    </clipPath>
    <clipPath
       clipPathUnits="userSpaceOnUse"
       id="clipPath18">
      <path
         d="M 0,85.04 H 170.08 V 0 H 0 Z"
         transform="translate(-40.091801,-22.991201)"
         id="path18" />
    </clipPath>
    <clipPath
       clipPathUnits="userSpaceOnUse"
       id="clipPath16">
      <path
         d="M 0,85.04 H 170.08 V 0 H 0 Z"
         transform="translate(-36.951201,-23.2803)"
         id="path16" />
    </clipPath>
    <clipPath
       clipPathUnits="userSpaceOnUse"
       id="clipPath14">
      <path
         d="M 0,85.04 H 170.08 V 0 H 0 Z"
         transform="translate(-32.622601,-29.9697)"
         id="path14" />
    </clipPath>
    <clipPath
       clipPathUnits="userSpaceOnUse"
       id="clipPath12">
      <path
         d="M 0,85.04 H 170.08 V 0 H 0 Z"
         transform="translate(-31.023401,-23.133801)"
         id="path12" />
    </clipPath>
    <clipPath
       clipPathUnits="userSpaceOnUse"
       id="clipPath10">
      <path
         d="M 0,85.04 H 170.08 V 0 H 0 Z"
         transform="translate(-22.6309,-25.344701)"
         id="path10" />
    </clipPath>
    <clipPath
       clipPathUnits="userSpaceOnUse"
       id="clipPath8">
      <path
         d="M 0,85.04 H 170.08 V 0 H 0 Z"
         transform="translate(-16.347201,-23.8662)"
         id="path8" />
    </clipPath>
    <clipPath
       clipPathUnits="userSpaceOnUse"
       id="clipPath6">
      <path
         d="M 0,85.04 H 170.08 V 0 H 0 Z"
         transform="translate(-80.898902,-59.877402)"
         id="path6" />
    </clipPath>
    <clipPath
       clipPathUnits="userSpaceOnUse"
       id="clipPath4">
      <path
         d="M 0,85.04 H 170.08 V 0 H 0 Z"
         transform="translate(-68.203601,-75.443802)"
         id="path4" />
    </clipPath>
    <clipPath
       clipPathUnits="userSpaceOnUse"
       id="clipPath2">
      <path
         d="M 0,85.04 H 170.08 V 0 H 0 Z"
         transform="translate(-26.068801,-74.291502)"
         id="path2" />
    </clipPath>
  </defs>
  <g
     inkscape:label="Layer 1"
     inkscape:groupmode="layer"
     id="layer1">
    <rect
       style="fill:#ffffff;fill-opacity:1;stroke-width:0.184303"
       id="rect1"
       width="207.6483"
       height="104.45339"
       x="1.40099"
       y="72.991524" />
    <path
       id="path1"
       d="m 0,0 c 0,-0.417 -0.036,-0.765 -0.107,-1.045 -0.072,-0.28 -0.196,-0.515 -0.372,-0.703 -0.175,-0.189 -0.413,-0.349 -0.712,-0.479 -0.3,-0.13 -0.684,-0.253 -1.153,-0.371 l -0.527,-0.136 2.461,-13.243 c 0.065,0.274 0.176,0.7 0.332,1.28 0.156,0.579 0.342,1.253 0.557,2.021 0.214,0.768 0.449,1.605 0.703,2.51 0.254,0.905 0.51,1.826 0.771,2.764 0.26,0.937 0.518,1.858 0.772,2.763 0.254,0.905 0.488,1.742 0.703,2.51 0.215,0.768 0.4,1.439 0.556,2.012 0.157,0.573 0.267,0.996 0.332,1.269 h 3.145 l 5.195,-17.129 2.285,13.438 -2.441,0.488 v 0.488 c 0,0.56 0.036,1.016 0.107,1.368 0.072,0.351 0.238,0.628 0.498,0.83 0.261,0.201 0.642,0.338 1.143,0.41 0.501,0.071 1.175,0.107 2.022,0.107 h 6.523 V 0 c 0,-0.417 -0.036,-0.765 -0.107,-1.045 -0.072,-0.28 -0.196,-0.515 -0.372,-0.703 -0.175,-0.189 -0.413,-0.349 -0.712,-0.479 -0.3,-0.13 -0.678,-0.253 -1.133,-0.371 -0.027,-0.013 -0.052,-0.019 -0.078,-0.019 L 16.23,-25.371 c -0.104,-0.469 -0.253,-0.84 -0.449,-1.113 -0.195,-0.274 -0.41,-0.479 -0.644,-0.616 -0.235,-0.136 -0.486,-0.221 -0.752,-0.254 -0.267,-0.032 -0.518,-0.048 -0.752,-0.048 h -3.184 l -4.59,17.05 -3.945,-15.019 c -0.13,-0.482 -0.303,-0.859 -0.518,-1.133 -0.214,-0.273 -0.449,-0.475 -0.703,-0.605 -0.254,-0.131 -0.517,-0.212 -0.791,-0.245 -0.273,-0.032 -0.54,-0.048 -0.8,-0.048 h -3.125 l -4.649,24.902 -2.246,0.449 v 0.488 c 0,0.56 0.036,1.016 0.107,1.368 0.072,0.351 0.238,0.628 0.498,0.83 0.261,0.201 0.642,0.338 1.143,0.41 0.501,0.071 1.175,0.107 2.022,0.107 H 0 Z"
       style="fill:#1a171b;fill-opacity:1;fill-rule:nonzero;stroke:none"
       transform="matrix(1.4123727,0,0,-1.4123727,21.495169,77.127919)"
       clip-path="url(#clipPath2)" />
    <path
       id="path3"
       d="m 0,0 0.176,-1.25 c 0.026,-0.222 0.039,-0.466 0.039,-0.732 0,-0.268 -0.027,-0.567 -0.078,-0.899 -0.053,-0.332 -0.147,-0.7 -0.283,-1.103 -0.137,-0.404 -0.33,-0.847 -0.577,-1.329 l -9.785,-18.867 h 8.145 l 0.468,2.168 h 0.469 c 0.56,0 1.016,-0.036 1.367,-0.107 0.352,-0.072 0.628,-0.235 0.83,-0.488 0.202,-0.254 0.339,-0.632 0.411,-1.133 0.071,-0.502 0.107,-1.176 0.107,-2.022 v -2.793 h -19.102 l -0.156,2.774 11.387,21.504 h -7.188 l -0.488,-2.246 h -0.488 c -0.547,0 -0.996,0.035 -1.348,0.107 -0.351,0.071 -0.628,0.234 -0.83,0.488 -0.202,0.254 -0.342,0.632 -0.42,1.133 -0.078,0.501 -0.117,1.175 -0.117,2.022 V 0 Z"
       style="fill:#1a171b;fill-opacity:1;fill-rule:nonzero;stroke:none"
       transform="matrix(1.4123727,0,0,-1.4123727,81.005206,75.500449)"
       clip-path="url(#clipPath4)" />
    <path
       id="path5"
       d="m 0,0 v -8.613 h 1.895 c 0.715,0 1.402,0.061 2.06,0.185 0.657,0.124 1.24,0.342 1.748,0.655 0.507,0.312 0.912,0.729 1.211,1.25 0.299,0.52 0.449,1.178 0.449,1.972 0,0.716 -0.101,1.354 -0.303,1.914 -0.201,0.56 -0.511,1.035 -0.928,1.426 -0.416,0.391 -0.957,0.69 -1.62,0.898 C 3.848,-0.104 3.06,0 2.148,0 Z M 0,11.191 V 4.199 h 1.641 c 0.651,0 1.253,0.078 1.806,0.235 C 4,4.59 4.479,4.821 4.883,5.127 5.287,5.433 5.602,5.813 5.83,6.27 6.058,6.725 6.171,7.252 6.171,7.852 6.171,8.477 6.058,9 5.83,9.424 5.602,9.847 5.287,10.192 4.883,10.459 4.479,10.726 4,10.915 3.447,11.025 2.894,11.136 2.285,11.191 1.621,11.191 Z m 1.719,4.375 c 1.653,0 3.121,-0.166 4.404,-0.498 1.283,-0.332 2.367,-0.817 3.252,-1.455 0.885,-0.638 1.559,-1.416 2.021,-2.334 0.463,-0.918 0.693,-1.963 0.693,-3.134 0,-0.547 -0.068,-1.111 -0.205,-1.69 C 11.748,5.875 11.537,5.313 11.25,4.766 10.963,4.219 10.592,3.701 10.136,3.213 9.681,2.725 9.14,2.292 8.515,1.914 9.232,1.641 9.889,1.309 10.488,0.918 c 0.599,-0.391 1.107,-0.853 1.523,-1.387 0.417,-0.534 0.742,-1.142 0.977,-1.826 0.234,-0.684 0.351,-1.455 0.351,-2.314 0,-1.224 -0.214,-2.348 -0.644,-3.37 -0.43,-1.022 -1.084,-1.904 -1.963,-2.646 -0.879,-0.742 -1.985,-1.322 -3.32,-1.738 -1.334,-0.417 -2.907,-0.625 -4.717,-0.625 h -12.05 v 1.152 c 0,0.417 0.035,0.765 0.107,1.045 0.071,0.28 0.195,0.514 0.371,0.703 0.176,0.189 0.413,0.348 0.713,0.479 0.299,0.13 0.684,0.254 1.152,0.371 l 0.606,0.156 v 20.82 l -2.871,0.625 v 0.489 c 0,0.559 0.035,1.015 0.107,1.367 0.071,0.351 0.234,0.628 0.488,0.83 0.254,0.201 0.632,0.338 1.133,0.41 0.501,0.071 1.175,0.107 2.022,0.107 z"
       style="fill:#1a171b;fill-opacity:1;fill-rule:nonzero;stroke:none"
       transform="matrix(1.4123727,0,0,-1.4123727,98.935669,97.485999)"
       clip-path="url(#clipPath6)" />
    <path
       id="path7"
       d="m 0,0 c 0,0.117 0.003,0.215 0.01,0.295 0.006,0.08 0.022,0.144 0.046,0.195 0.025,0.051 0.06,0.086 0.105,0.108 0.046,0.021 0.108,0.031 0.186,0.031 h 0.068 l 0.117,-0.863 c 0.205,-0.095 0.44,-0.174 0.703,-0.238 0.264,-0.063 0.549,-0.094 0.855,-0.094 0.205,0 0.412,0.023 0.622,0.07 0.21,0.047 0.399,0.122 0.567,0.225 0.167,0.102 0.304,0.232 0.41,0.388 0.106,0.156 0.159,0.345 0.159,0.567 0,0.214 -0.047,0.404 -0.14,0.57 C 3.616,1.42 3.491,1.57 3.335,1.706 3.179,1.842 2.997,1.967 2.788,2.082 2.58,2.197 2.358,2.314 2.124,2.432 1.864,2.559 1.615,2.692 1.377,2.834 1.139,2.976 0.93,3.133 0.75,3.305 0.569,3.478 0.425,3.67 0.317,3.884 0.21,4.098 0.156,4.339 0.156,4.609 c 0,0.208 0.033,0.395 0.1,0.559 C 0.323,5.332 0.413,5.477 0.525,5.6 0.637,5.724 0.769,5.828 0.92,5.912 1.072,5.997 1.23,6.066 1.396,6.12 1.563,6.174 1.732,6.213 1.904,6.237 2.077,6.262 2.243,6.273 2.402,6.273 2.754,6.273 3.088,6.23 3.406,6.143 3.723,6.055 4.01,5.948 4.268,5.824 V 5.326 C 4.268,5.209 4.264,5.111 4.258,5.031 4.251,4.951 4.236,4.887 4.211,4.838 4.187,4.789 4.152,4.754 4.106,4.73 4.061,4.708 3.999,4.697 3.921,4.697 H 3.853 L 3.75,5.482 C 3.564,5.551 3.364,5.608 3.149,5.654 2.935,5.699 2.715,5.723 2.49,5.723 2.321,5.723 2.141,5.704 1.951,5.668 1.76,5.633 1.584,5.572 1.423,5.488 1.262,5.403 1.129,5.289 1.023,5.144 0.917,4.998 0.864,4.818 0.864,4.604 0.864,4.398 0.913,4.215 1.011,4.053 1.108,3.89 1.238,3.74 1.399,3.604 1.56,3.467 1.745,3.34 1.953,3.223 2.162,3.105 2.375,2.992 2.593,2.885 2.85,2.755 3.097,2.623 3.333,2.49 3.568,2.356 3.775,2.205 3.953,2.038 4.13,1.871 4.271,1.68 4.377,1.465 4.483,1.25 4.536,0.996 4.536,0.703 4.536,0.491 4.503,0.299 4.438,0.127 4.374,-0.046 4.283,-0.199 4.167,-0.335 4.052,-0.471 3.917,-0.588 3.765,-0.687 3.612,-0.785 3.446,-0.868 3.269,-0.934 3.092,-0.998 2.909,-1.047 2.72,-1.077 2.531,-1.107 2.344,-1.123 2.158,-1.123 c -0.433,0 -0.831,0.049 -1.196,0.148 -0.365,0.1 -0.685,0.237 -0.962,0.412 z"
       style="fill:#1a171b;fill-opacity:1;fill-rule:nonzero;stroke:none"
       transform="matrix(1.4123727,0,0,-1.4123727,7.7646505,148.34725)"
       clip-path="url(#clipPath8)" />
    <path
       id="path9"
       d="m 0,0 c 0,-0.381 0.039,-0.703 0.117,-0.967 0.078,-0.263 0.184,-0.476 0.318,-0.638 0.133,-0.164 0.291,-0.281 0.473,-0.352 0.182,-0.072 0.376,-0.107 0.581,-0.107 0.205,0 0.397,0.035 0.574,0.107 0.177,0.071 0.333,0.188 0.466,0.352 0.134,0.162 0.239,0.375 0.315,0.638 C 2.921,-0.703 2.959,-0.381 2.959,0 2.959,0.385 2.921,0.707 2.844,0.967 2.768,1.228 2.663,1.438 2.529,1.598 2.396,1.757 2.24,1.871 2.063,1.941 1.886,2.012 1.694,2.047 1.489,2.047 1.284,2.047 1.09,2.012 0.908,1.941 0.726,1.871 0.568,1.757 0.435,1.598 0.301,1.438 0.195,1.228 0.117,0.967 0.039,0.707 0,0.385 0,0 m -0.674,-0.004 c 0,0.482 0.06,0.887 0.181,1.218 0.12,0.331 0.281,0.597 0.481,0.798 0.2,0.202 0.432,0.347 0.696,0.437 0.263,0.09 0.537,0.135 0.82,0.135 0.283,0 0.553,-0.045 0.81,-0.135 C 2.572,2.359 2.798,2.214 2.993,2.012 3.188,1.811 3.344,1.545 3.459,1.214 3.575,0.883 3.633,0.478 3.633,-0.004 3.633,-0.486 3.573,-0.893 3.452,-1.223 3.332,-1.553 3.171,-1.82 2.971,-2.025 2.771,-2.23 2.541,-2.379 2.28,-2.468 2.02,-2.557 1.748,-2.602 1.465,-2.602 c -0.283,0 -0.554,0.045 -0.813,0.134 -0.259,0.089 -0.487,0.238 -0.684,0.443 -0.197,0.205 -0.353,0.472 -0.468,0.802 -0.116,0.33 -0.174,0.737 -0.174,1.219"
       style="fill:#1a171b;fill-opacity:1;fill-rule:nonzero;stroke:none"
       transform="matrix(1.4123727,0,0,-1.4123727,16.63957,146.25906)"
       clip-path="url(#clipPath10)" />
    <path
       id="path11"
       d="m 0,0 c -0.211,-0.114 -0.435,-0.208 -0.669,-0.281 -0.234,-0.073 -0.478,-0.11 -0.732,-0.11 -0.326,0 -0.629,0.053 -0.911,0.161 -0.282,0.107 -0.526,0.271 -0.732,0.491 -0.207,0.219 -0.37,0.498 -0.489,0.835 -0.118,0.337 -0.178,0.734 -0.178,1.193 0,0.463 0.062,0.853 0.186,1.17 0.123,0.317 0.29,0.575 0.5,0.773 0.21,0.2 0.451,0.342 0.723,0.43 0.272,0.088 0.557,0.133 0.857,0.133 0.234,0 0.455,-0.022 0.661,-0.065 0.207,-0.042 0.419,-0.105 0.638,-0.189 V 3.949 C -0.146,3.832 -0.15,3.734 -0.156,3.654 -0.163,3.574 -0.177,3.51 -0.2,3.461 -0.223,3.412 -0.257,3.377 -0.303,3.354 -0.348,3.331 -0.41,3.32 -0.488,3.32 H -0.557 L -0.669,4.154 C -0.783,4.188 -0.899,4.213 -1.018,4.23 -1.137,4.248 -1.265,4.258 -1.401,4.258 -1.623,4.258 -1.832,4.223 -2.029,4.154 -2.226,4.086 -2.399,3.975 -2.549,3.818 -2.699,3.662 -2.817,3.459 -2.905,3.21 -2.993,2.961 -3.037,2.656 -3.037,2.295 c 0,-0.368 0.041,-0.687 0.124,-0.955 0.083,-0.269 0.199,-0.492 0.347,-0.669 0.148,-0.177 0.325,-0.31 0.53,-0.396 0.205,-0.086 0.43,-0.129 0.674,-0.129 0.208,0 0.406,0.032 0.593,0.095 0.187,0.064 0.365,0.138 0.535,0.222 z"
       style="fill:#1a171b;fill-opacity:1;fill-rule:nonzero;stroke:none"
       transform="matrix(1.4123727,0,0,-1.4123727,28.492908,149.38168)"
       clip-path="url(#clipPath12)" />
    <path
       id="path13"
       d="m 0,0 c -0.077,-0.078 -0.115,-0.221 -0.115,-0.426 0,-0.103 0.009,-0.189 0.027,-0.258 0.018,-0.068 0.047,-0.123 0.088,-0.164 0.041,-0.041 0.095,-0.07 0.164,-0.088 0.068,-0.017 0.154,-0.027 0.258,-0.027 0.205,0 0.347,0.039 0.425,0.115 0.078,0.077 0.117,0.217 0.117,0.422 C 0.964,-0.221 0.925,-0.078 0.847,0 0.769,0.078 0.627,0.117 0.422,0.117 0.217,0.117 0.077,0.078 0,0 M 0.764,-6.553 1.638,-6.67 V -6.734 C 1.638,-6.813 1.627,-6.874 1.604,-6.92 1.581,-6.965 1.544,-7 1.494,-7.024 1.444,-7.049 1.378,-7.064 1.299,-7.07 1.219,-7.077 1.122,-7.08 1.008,-7.08 h -1.792 v 0.101 c 0,0.118 0.031,0.2 0.091,0.245 0.06,0.046 0.158,0.084 0.295,0.113 l 0.488,0.082 v 3.834 l -0.747,0.101 v 0.069 c 0,0.078 0.011,0.14 0.032,0.185 0.021,0.046 0.057,0.081 0.107,0.106 0.051,0.024 0.116,0.04 0.196,0.047 0.079,0.006 0.178,0.009 0.295,0.009 h 0.791 z"
       style="fill:#1a171b;fill-opacity:1;fill-rule:nonzero;stroke:none"
       transform="matrix(1.4123727,0,0,-1.4123727,30.751577,139.72683)"
       clip-path="url(#clipPath14)" />
    <path
       id="path15"
       d="m 0,0 c 0.215,0 0.411,0.029 0.588,0.09 0.178,0.06 0.361,0.138 0.55,0.232 v 1.787 c -0.121,0 -0.244,0 -0.371,0.002 C 0.64,2.113 0.524,2.113 0.42,2.113 H 0.063 c -0.377,0 -0.677,-0.086 -0.9,-0.258 -0.224,-0.172 -0.336,-0.426 -0.34,-0.761 0,-0.183 0.036,-0.342 0.108,-0.479 0.071,-0.136 0.163,-0.251 0.276,-0.342 0.112,-0.091 0.238,-0.16 0.378,-0.205 C -0.275,0.022 -0.137,0 0,0 m -1.421,4.32 c 0.133,0.049 0.273,0.094 0.418,0.135 0.145,0.041 0.288,0.076 0.429,0.106 0.142,0.029 0.278,0.05 0.408,0.065 0.13,0.015 0.246,0.022 0.347,0.022 0.211,0 0.416,-0.025 0.612,-0.076 C 0.99,4.521 1.165,4.43 1.316,4.297 1.467,4.163 1.588,3.979 1.677,3.744 1.767,3.51 1.812,3.211 1.812,2.846 H 1.138 C 1.138,3.094 1.111,3.301 1.057,3.467 1.003,3.633 0.928,3.766 0.83,3.867 0.732,3.968 0.617,4.039 0.483,4.079 0.35,4.119 0.205,4.141 0.049,4.141 -0.033,4.141 -0.126,4.133 -0.232,4.118 -0.338,4.104 -0.449,4.083 -0.566,4.057 -0.684,4.031 -0.803,4.001 -0.925,3.967 -1.047,3.933 -1.167,3.895 -1.284,3.852 Z m 2.622,-4.711 c 0,0.02 -0.001,0.042 -0.005,0.069 C 1.193,-0.303 1.19,-0.279 1.187,-0.252 1.183,-0.225 1.18,-0.195 1.177,-0.166 0.978,-0.271 0.774,-0.358 0.564,-0.43 0.354,-0.502 0.116,-0.537 -0.151,-0.537 c -0.199,0 -0.398,0.035 -0.599,0.104 -0.2,0.07 -0.38,0.172 -0.542,0.306 -0.161,0.133 -0.291,0.299 -0.393,0.498 -0.101,0.198 -0.151,0.426 -0.151,0.684 0,0.257 0.045,0.48 0.134,0.671 0.09,0.19 0.214,0.347 0.374,0.471 0.16,0.123 0.35,0.216 0.571,0.278 0.221,0.062 0.463,0.093 0.723,0.093 H 0.122 C 0.204,2.568 0.3,2.566 0.413,2.565 0.525,2.564 0.645,2.563 0.771,2.561 0.898,2.559 1.021,2.557 1.138,2.553 V 2.846 H 1.812 V 0.121 L 2.559,0.02 V -0.045 C 2.559,-0.123 2.548,-0.185 2.527,-0.23 2.506,-0.275 2.47,-0.311 2.419,-0.335 2.369,-0.359 2.304,-0.375 2.224,-0.381 2.145,-0.388 2.046,-0.391 1.929,-0.391 Z"
       style="fill:#1a171b;fill-opacity:1;fill-rule:nonzero;stroke:none"
       transform="matrix(1.4123727,0,0,-1.4123727,36.865176,149.17476)"
       clip-path="url(#clipPath16)" />
    <path
       id="path17"
       d="M 0,0 C 0,0.117 0.03,0.199 0.09,0.244 0.15,0.29 0.249,0.328 0.386,0.357 L 0.874,0.439 V 6.637 L 0.127,6.738 v 0.065 c 0,0.078 0.011,0.139 0.034,0.185 0.023,0.045 0.059,0.08 0.108,0.105 0.048,0.024 0.113,0.04 0.192,0.046 0.08,0.007 0.179,0.009 0.296,0.009 H 1.548 V 0.426 L 2.417,0.309 V 0.244 C 2.417,0.166 2.406,0.104 2.385,0.059 2.364,0.014 2.328,-0.021 2.278,-0.046 2.228,-0.07 2.162,-0.086 2.083,-0.092 2.003,-0.099 1.904,-0.102 1.787,-0.102 H 0 Z"
       style="fill:#1a171b;fill-opacity:1;fill-rule:nonzero;stroke:none"
       transform="matrix(1.4123727,0,0,-1.4123727,41.300866,149.58308)"
       clip-path="url(#clipPath18)" />
    <path
       id="path19"
       d="m 0,0 c 0,0.117 0.003,0.215 0.01,0.295 0.006,0.08 0.022,0.144 0.046,0.195 0.025,0.051 0.06,0.086 0.105,0.108 0.046,0.021 0.108,0.031 0.186,0.031 h 0.068 l 0.117,-0.863 c 0.205,-0.095 0.44,-0.174 0.703,-0.238 0.264,-0.063 0.549,-0.094 0.855,-0.094 0.205,0 0.412,0.023 0.622,0.07 0.21,0.047 0.399,0.122 0.567,0.225 0.167,0.102 0.304,0.232 0.41,0.388 0.106,0.156 0.159,0.345 0.159,0.567 0,0.214 -0.047,0.404 -0.14,0.57 C 3.616,1.42 3.491,1.57 3.335,1.706 3.179,1.842 2.997,1.967 2.788,2.082 2.58,2.197 2.358,2.314 2.124,2.432 1.864,2.559 1.615,2.692 1.377,2.834 1.139,2.976 0.93,3.133 0.75,3.305 0.569,3.478 0.425,3.67 0.317,3.884 0.21,4.098 0.156,4.339 0.156,4.609 c 0,0.208 0.033,0.395 0.1,0.559 C 0.323,5.332 0.413,5.477 0.525,5.6 0.637,5.724 0.769,5.828 0.92,5.912 1.072,5.997 1.23,6.066 1.396,6.12 1.563,6.174 1.732,6.213 1.904,6.237 2.077,6.262 2.243,6.273 2.402,6.273 2.754,6.273 3.088,6.23 3.406,6.143 3.723,6.055 4.01,5.948 4.268,5.824 V 5.326 C 4.268,5.209 4.264,5.111 4.258,5.031 4.251,4.951 4.236,4.887 4.211,4.838 4.187,4.789 4.152,4.754 4.106,4.73 4.061,4.708 3.999,4.697 3.921,4.697 H 3.853 L 3.75,5.482 C 3.564,5.551 3.364,5.608 3.149,5.654 2.935,5.699 2.715,5.723 2.49,5.723 2.321,5.723 2.141,5.704 1.951,5.668 1.76,5.633 1.584,5.572 1.423,5.488 1.262,5.403 1.129,5.289 1.023,5.144 0.917,4.998 0.864,4.818 0.864,4.604 0.864,4.398 0.913,4.215 1.011,4.053 1.108,3.89 1.238,3.74 1.399,3.604 1.56,3.467 1.745,3.34 1.953,3.223 2.162,3.105 2.375,2.992 2.593,2.885 2.85,2.755 3.097,2.623 3.333,2.49 3.568,2.356 3.775,2.205 3.953,2.038 4.13,1.871 4.271,1.68 4.377,1.465 4.483,1.25 4.536,0.996 4.536,0.703 4.536,0.491 4.503,0.299 4.438,0.127 4.374,-0.046 4.283,-0.199 4.167,-0.335 4.052,-0.471 3.917,-0.588 3.765,-0.687 3.612,-0.785 3.446,-0.868 3.269,-0.934 3.092,-0.998 2.909,-1.047 2.72,-1.077 2.531,-1.107 2.344,-1.123 2.158,-1.123 c -0.433,0 -0.831,0.049 -1.196,0.148 -0.365,0.1 -0.685,0.237 -0.962,0.412 z"
       style="fill:#1a171b;fill-opacity:1;fill-rule:nonzero;stroke:none"
       transform="matrix(1.4123727,0,0,-1.4123727,49.809576,148.34725)"
       clip-path="url(#clipPath20)" />
    <path
       id="path21"
       d="m 0,0 c -0.211,-0.114 -0.435,-0.208 -0.669,-0.281 -0.234,-0.073 -0.478,-0.11 -0.732,-0.11 -0.326,0 -0.629,0.053 -0.911,0.161 -0.282,0.107 -0.526,0.271 -0.732,0.491 -0.207,0.219 -0.37,0.498 -0.489,0.835 -0.118,0.337 -0.178,0.734 -0.178,1.193 0,0.463 0.062,0.853 0.186,1.17 0.123,0.317 0.29,0.575 0.5,0.773 0.21,0.2 0.451,0.342 0.723,0.43 0.272,0.088 0.557,0.133 0.857,0.133 0.234,0 0.455,-0.022 0.661,-0.065 0.207,-0.042 0.419,-0.105 0.638,-0.189 V 3.949 C -0.146,3.832 -0.15,3.734 -0.156,3.654 -0.163,3.574 -0.177,3.51 -0.2,3.461 -0.223,3.412 -0.257,3.377 -0.303,3.354 -0.348,3.331 -0.41,3.32 -0.488,3.32 H -0.557 L -0.669,4.154 C -0.783,4.188 -0.899,4.213 -1.018,4.23 -1.137,4.248 -1.265,4.258 -1.401,4.258 -1.623,4.258 -1.832,4.223 -2.029,4.154 -2.226,4.086 -2.399,3.975 -2.549,3.818 -2.699,3.662 -2.817,3.459 -2.905,3.21 -2.993,2.961 -3.037,2.656 -3.037,2.295 c 0,-0.368 0.041,-0.687 0.124,-0.955 0.083,-0.269 0.199,-0.492 0.347,-0.669 0.148,-0.177 0.325,-0.31 0.53,-0.396 0.205,-0.086 0.43,-0.129 0.674,-0.129 0.208,0 0.406,0.032 0.593,0.095 0.187,0.064 0.365,0.138 0.535,0.222 z"
       style="fill:#1a171b;fill-opacity:1;fill-rule:nonzero;stroke:none"
       transform="matrix(1.4123727,0,0,-1.4123727,63.002266,149.38168)"
       clip-path="url(#clipPath22)" />
    <path
       id="path23"
       d="m 0,0 c -0.077,-0.078 -0.115,-0.221 -0.115,-0.426 0,-0.103 0.009,-0.189 0.027,-0.258 0.018,-0.068 0.047,-0.123 0.088,-0.164 0.041,-0.041 0.095,-0.07 0.164,-0.088 0.068,-0.017 0.154,-0.027 0.258,-0.027 0.205,0 0.347,0.039 0.425,0.115 0.078,0.077 0.117,0.217 0.117,0.422 C 0.964,-0.221 0.925,-0.078 0.847,0 0.769,0.078 0.627,0.117 0.422,0.117 0.217,0.117 0.077,0.078 0,0 M 0.764,-6.553 1.638,-6.67 V -6.734 C 1.638,-6.813 1.627,-6.874 1.604,-6.92 1.581,-6.965 1.544,-7 1.494,-7.024 1.444,-7.049 1.378,-7.064 1.299,-7.07 1.219,-7.077 1.122,-7.08 1.008,-7.08 h -1.792 v 0.101 c 0,0.118 0.031,0.2 0.091,0.245 0.06,0.046 0.158,0.084 0.295,0.113 l 0.488,0.082 v 3.834 l -0.747,0.101 v 0.069 c 0,0.078 0.011,0.14 0.032,0.185 0.021,0.046 0.057,0.081 0.107,0.106 0.051,0.024 0.116,0.04 0.196,0.047 0.079,0.006 0.178,0.009 0.295,0.009 h 0.791 z"
       style="fill:#1a171b;fill-opacity:1;fill-rule:nonzero;stroke:none"
       transform="matrix(1.4123727,0,0,-1.4123727,65.260926,139.72683)"
       clip-path="url(#clipPath24)" />
    <path
       id="path25"
       d="M 0,0 C -0.176,0 -0.348,-0.034 -0.515,-0.102 -0.683,-0.168 -0.835,-0.271 -0.972,-0.41 -1.108,-0.549 -1.224,-0.724 -1.318,-0.936 -1.413,-1.148 -1.473,-1.399 -1.499,-1.689 H 1.284 C 1.274,-1.39 1.235,-1.133 1.167,-0.918 1.099,-0.705 1.007,-0.53 0.894,-0.395 0.78,-0.26 0.647,-0.16 0.496,-0.096 0.344,-0.032 0.179,0 0,0 M 1.646,-4.17 C 1.535,-4.238 1.419,-4.302 1.299,-4.361 1.178,-4.421 1.052,-4.473 0.92,-4.519 0.789,-4.563 0.649,-4.6 0.503,-4.627 0.356,-4.654 0.202,-4.668 0.039,-4.668 c -0.371,0 -0.696,0.072 -0.974,0.219 -0.278,0.146 -0.51,0.342 -0.696,0.586 -0.185,0.244 -0.325,0.526 -0.417,0.845 -0.093,0.319 -0.14,0.651 -0.14,0.997 0,0.449 0.065,0.833 0.193,1.156 0.129,0.322 0.297,0.588 0.506,0.797 0.208,0.208 0.444,0.361 0.708,0.459 0.263,0.097 0.531,0.146 0.801,0.146 0.27,0 0.521,-0.047 0.754,-0.14 C 1.007,0.305 1.209,0.159 1.382,-0.039 1.554,-0.238 1.69,-0.494 1.79,-0.809 1.889,-1.123 1.938,-1.5 1.938,-1.939 v -0.043 -0.075 c 0,-0.025 0,-0.049 -0.002,-0.072 C 1.935,-2.152 1.934,-2.165 1.934,-2.168 h -3.448 c 0.01,-0.235 0.047,-0.47 0.11,-0.703 0.064,-0.233 0.16,-0.443 0.288,-0.631 0.129,-0.187 0.294,-0.34 0.496,-0.455 0.202,-0.116 0.448,-0.174 0.737,-0.174 0.254,0 0.489,0.04 0.706,0.121 0.216,0.082 0.416,0.176 0.598,0.283 z"
       style="fill:#1a171b;fill-opacity:1;fill-rule:nonzero;stroke:none"
       transform="matrix(1.4123727,0,0,-1.4123727,71.888196,143.36808)"
       clip-path="url(#clipPath26)" />
    <path
       id="path27"
       d="M 0,0 C -0.148,0.16 -0.37,0.24 -0.667,0.24 -0.771,0.24 -0.89,0.227 -1.023,0.198 -1.156,0.17 -1.295,0.134 -1.44,0.088 -1.585,0.043 -1.732,-0.01 -1.88,-0.068 -2.028,-0.127 -2.167,-0.187 -2.297,-0.248 v -3.447 l 0.673,-0.098 v -0.064 c 0,-0.079 -0.01,-0.14 -0.031,-0.186 -0.021,-0.045 -0.057,-0.08 -0.108,-0.104 -0.05,-0.025 -0.115,-0.041 -0.195,-0.046 -0.08,-0.007 -0.178,-0.01 -0.295,-0.01 h -1.592 v 0.101 c 0,0.118 0.031,0.2 0.093,0.245 0.062,0.045 0.161,0.084 0.297,0.113 l 0.484,0.082 v 3.834 l -0.747,0.101 v 0.069 c 0,0.078 0.011,0.14 0.034,0.185 0.023,0.046 0.059,0.081 0.107,0.106 0.049,0.024 0.114,0.04 0.193,0.047 0.08,0.006 0.178,0.009 0.296,0.009 h 0.732 c 0.003,-0.039 0.006,-0.08 0.01,-0.123 0.003,-0.035 0.006,-0.078 0.01,-0.127 0.003,-0.048 0.008,-0.095 0.014,-0.14 0.348,0.166 0.679,0.297 0.991,0.392 0.313,0.096 0.583,0.145 0.811,0.145 0.228,0 0.43,-0.029 0.605,-0.088 C 0.261,0.689 0.409,0.598 0.53,0.472 0.65,0.346 0.741,0.185 0.803,-0.014 0.865,-0.213 0.896,-0.452 0.896,-0.732 v -2.959 l 0.742,-0.102 v -0.064 c 0,-0.079 -0.011,-0.14 -0.032,-0.186 C 1.585,-4.088 1.549,-4.123 1.499,-4.147 1.449,-4.172 1.383,-4.188 1.304,-4.193 1.224,-4.2 1.125,-4.203 1.008,-4.203 H 0.222 v 3.408 C 0.222,-0.424 0.148,-0.159 0,0"
       style="fill:#1a171b;fill-opacity:1;fill-rule:nonzero;stroke:none"
       transform="matrix(1.4123727,0,0,-1.4123727,81.270736,143.79009)"
       clip-path="url(#clipPath28)" />
    <path
       id="path29"
       d="m 0,0 c -0.211,-0.114 -0.435,-0.208 -0.669,-0.281 -0.234,-0.073 -0.478,-0.11 -0.732,-0.11 -0.326,0 -0.629,0.053 -0.911,0.161 -0.282,0.107 -0.526,0.271 -0.732,0.491 -0.207,0.219 -0.37,0.498 -0.489,0.835 -0.118,0.337 -0.178,0.734 -0.178,1.193 0,0.463 0.062,0.853 0.186,1.17 0.123,0.317 0.29,0.575 0.5,0.773 0.21,0.2 0.451,0.342 0.723,0.43 0.272,0.088 0.557,0.133 0.857,0.133 0.234,0 0.455,-0.022 0.661,-0.065 0.207,-0.042 0.419,-0.105 0.638,-0.189 V 3.949 C -0.146,3.832 -0.15,3.734 -0.156,3.654 -0.163,3.574 -0.177,3.51 -0.2,3.461 -0.223,3.412 -0.257,3.377 -0.303,3.354 -0.348,3.331 -0.41,3.32 -0.488,3.32 H -0.557 L -0.669,4.154 C -0.783,4.188 -0.899,4.213 -1.018,4.23 -1.137,4.248 -1.265,4.258 -1.401,4.258 -1.623,4.258 -1.832,4.223 -2.029,4.154 -2.226,4.086 -2.399,3.975 -2.549,3.818 -2.699,3.662 -2.817,3.459 -2.905,3.21 -2.993,2.961 -3.037,2.656 -3.037,2.295 c 0,-0.368 0.041,-0.687 0.124,-0.955 0.083,-0.269 0.199,-0.492 0.347,-0.669 0.148,-0.177 0.325,-0.31 0.53,-0.396 0.205,-0.086 0.43,-0.129 0.674,-0.129 0.208,0 0.406,0.032 0.593,0.095 0.187,0.064 0.365,0.138 0.535,0.222 z"
       style="fill:#1a171b;fill-opacity:1;fill-rule:nonzero;stroke:none"
       transform="matrix(1.4123727,0,0,-1.4123727,89.880846,149.38168)"
       clip-path="url(#clipPath30)" />
    <path
       id="path31"
       d="M 0,0 C -0.176,0 -0.348,-0.034 -0.515,-0.102 -0.683,-0.168 -0.835,-0.271 -0.972,-0.41 -1.108,-0.549 -1.224,-0.724 -1.318,-0.936 -1.413,-1.148 -1.473,-1.399 -1.499,-1.689 H 1.284 C 1.274,-1.39 1.235,-1.133 1.167,-0.918 1.099,-0.705 1.007,-0.53 0.894,-0.395 0.78,-0.26 0.647,-0.16 0.496,-0.096 0.344,-0.032 0.179,0 0,0 M 1.646,-4.17 C 1.535,-4.238 1.419,-4.302 1.299,-4.361 1.178,-4.421 1.052,-4.473 0.92,-4.519 0.789,-4.563 0.649,-4.6 0.503,-4.627 0.356,-4.654 0.202,-4.668 0.039,-4.668 c -0.371,0 -0.696,0.072 -0.974,0.219 -0.278,0.146 -0.51,0.342 -0.696,0.586 -0.185,0.244 -0.325,0.526 -0.417,0.845 -0.093,0.319 -0.14,0.651 -0.14,0.997 0,0.449 0.065,0.833 0.193,1.156 0.129,0.322 0.297,0.588 0.506,0.797 0.208,0.208 0.444,0.361 0.708,0.459 0.263,0.097 0.531,0.146 0.801,0.146 0.27,0 0.521,-0.047 0.754,-0.14 C 1.007,0.305 1.209,0.159 1.382,-0.039 1.554,-0.238 1.69,-0.494 1.79,-0.809 1.889,-1.123 1.938,-1.5 1.938,-1.939 v -0.043 -0.075 c 0,-0.025 0,-0.049 -0.002,-0.072 C 1.935,-2.152 1.934,-2.165 1.934,-2.168 h -3.448 c 0.01,-0.235 0.047,-0.47 0.11,-0.703 0.064,-0.233 0.16,-0.443 0.288,-0.631 0.129,-0.187 0.294,-0.34 0.496,-0.455 0.202,-0.116 0.448,-0.174 0.737,-0.174 0.254,0 0.489,0.04 0.706,0.121 0.216,0.082 0.416,0.176 0.598,0.283 z"
       style="fill:#1a171b;fill-opacity:1;fill-rule:nonzero;stroke:none"
       transform="matrix(1.4123727,0,0,-1.4123727,94.308333,143.36808)"
       clip-path="url(#clipPath32)" />
    <path
       id="path33"
       d="m 0,0 h 0.605 c 0.333,0 0.619,0.037 0.86,0.111 0.241,0.076 0.44,0.18 0.596,0.316 C 2.217,0.563 2.333,0.723 2.407,0.908 2.482,1.094 2.52,1.299 2.52,1.523 2.52,2.002 2.355,2.375 2.026,2.644 1.698,2.912 1.195,3.047 0.518,3.047 H 0 Z m -1.548,-3.453 c 0,0.117 0.03,0.199 0.09,0.244 0.061,0.046 0.161,0.084 0.301,0.113 l 0.483,0.082 V 3.07 l -0.742,0.104 v 0.062 c 0,0.078 0.011,0.141 0.032,0.186 0.021,0.046 0.057,0.081 0.107,0.105 0.05,0.025 0.116,0.04 0.195,0.047 0.08,0.006 0.179,0.01 0.296,0.01 h 1.382 c 0.423,0 0.797,-0.047 1.12,-0.14 C 2.04,3.352 2.311,3.217 2.527,3.041 2.743,2.865 2.907,2.652 3.018,2.402 3.128,2.151 3.184,1.868 3.184,1.553 3.184,1.321 3.153,1.104 3.09,0.902 3.029,0.701 2.936,0.518 2.81,0.352 2.684,0.186 2.527,0.04 2.336,-0.084 2.146,-0.207 1.922,-0.305 1.665,-0.377 1.723,-0.471 1.793,-0.586 1.873,-0.721 1.952,-0.855 2.032,-0.989 2.11,-1.121 2.188,-1.253 2.256,-1.37 2.317,-1.473 2.377,-1.575 2.416,-1.64 2.432,-1.666 2.63,-2.001 2.811,-2.289 2.976,-2.529 3.141,-2.771 3.278,-2.943 3.389,-3.047 l 0.615,-0.098 v -0.064 c 0,-0.078 -0.009,-0.14 -0.027,-0.186 C 3.959,-3.439 3.93,-3.475 3.889,-3.499 3.848,-3.523 3.793,-3.539 3.725,-3.545 3.657,-3.552 3.573,-3.555 3.471,-3.555 H 3.047 C 2.877,-3.461 2.706,-3.297 2.53,-3.063 2.354,-2.828 2.15,-2.517 1.918,-2.129 L 1.006,-0.488 C 0.879,-0.498 0.747,-0.504 0.61,-0.504 H 0 V -3.047 L 0.674,-3.145 V -3.209 C 0.674,-3.287 0.663,-3.349 0.64,-3.395 0.617,-3.439 0.581,-3.475 0.532,-3.499 0.483,-3.523 0.419,-3.539 0.339,-3.545 0.26,-3.552 0.161,-3.555 0.044,-3.555 h -1.592 z"
       style="fill:#1a171b;fill-opacity:1;fill-rule:nonzero;stroke:none"
       transform="matrix(1.4123727,0,0,-1.4123727,104.54801,144.70602)"
       clip-path="url(#clipPath34)" />
    <path
       id="path35"
       d="M 0,0 C -0.176,0 -0.348,-0.034 -0.515,-0.102 -0.682,-0.168 -0.834,-0.271 -0.971,-0.41 -1.107,-0.549 -1.224,-0.724 -1.318,-0.936 -1.412,-1.148 -1.473,-1.399 -1.498,-1.689 H 1.285 C 1.275,-1.39 1.236,-1.133 1.168,-0.918 1.1,-0.705 1.008,-0.53 0.895,-0.395 0.78,-0.26 0.647,-0.16 0.496,-0.096 0.345,-0.032 0.18,0 0,0 M 1.646,-4.17 C 1.535,-4.238 1.42,-4.302 1.299,-4.361 1.179,-4.421 1.053,-4.473 0.921,-4.519 0.789,-4.563 0.65,-4.6 0.504,-4.627 0.357,-4.654 0.202,-4.668 0.039,-4.668 c -0.371,0 -0.695,0.072 -0.974,0.219 -0.278,0.146 -0.51,0.342 -0.696,0.586 -0.185,0.244 -0.324,0.526 -0.417,0.845 -0.093,0.319 -0.14,0.651 -0.14,0.997 0,0.449 0.065,0.833 0.194,1.156 0.129,0.322 0.297,0.588 0.506,0.797 0.208,0.208 0.443,0.361 0.707,0.459 0.263,0.097 0.531,0.146 0.801,0.146 0.27,0 0.521,-0.047 0.754,-0.14 C 1.008,0.305 1.21,0.159 1.383,-0.039 1.555,-0.238 1.691,-0.494 1.79,-0.809 1.889,-1.123 1.939,-1.5 1.939,-1.939 V -1.982 -2.057 C 1.939,-2.082 1.938,-2.106 1.937,-2.129 1.936,-2.152 1.934,-2.165 1.934,-2.168 h -3.448 c 0.01,-0.235 0.047,-0.47 0.111,-0.703 0.063,-0.233 0.159,-0.443 0.288,-0.631 0.129,-0.187 0.294,-0.34 0.496,-0.455 0.201,-0.116 0.447,-0.174 0.736,-0.174 0.254,0 0.49,0.04 0.706,0.121 0.216,0.082 0.416,0.176 0.599,0.283 z"
       style="fill:#1a171b;fill-opacity:1;fill-rule:nonzero;stroke:none"
       transform="matrix(1.4123727,0,0,-1.4123727,114.2229,143.36808)"
       clip-path="url(#clipPath36)" />
    <path
       id="path37"
       d="m 0,0 c 0,0.117 0.004,0.217 0.01,0.296 0.007,0.079 0.022,0.145 0.047,0.195 0.024,0.05 0.059,0.087 0.105,0.108 0.045,0.02 0.108,0.032 0.186,0.032 h 0.068 l 0.117,-0.879 c 0.196,-0.095 0.391,-0.165 0.586,-0.211 0.195,-0.045 0.402,-0.068 0.619,-0.068 0.157,0 0.303,0.017 0.44,0.051 0.136,0.035 0.257,0.085 0.359,0.154 0.103,0.068 0.184,0.152 0.242,0.252 0.059,0.099 0.088,0.216 0.088,0.349 0,0.15 -0.032,0.278 -0.096,0.383 C 2.708,0.768 2.617,0.862 2.5,0.945 2.383,1.028 2.242,1.105 2.076,1.178 1.91,1.249 1.725,1.325 1.52,1.406 1.33,1.484 1.15,1.568 0.979,1.656 0.809,1.744 0.658,1.845 0.527,1.959 0.397,2.072 0.293,2.204 0.215,2.354 0.137,2.504 0.098,2.68 0.098,2.881 c 0,0.234 0.054,0.432 0.164,0.592 0.109,0.159 0.248,0.289 0.418,0.387 0.169,0.099 0.355,0.17 0.558,0.212 0.203,0.043 0.4,0.065 0.588,0.065 0.326,0 0.612,-0.029 0.856,-0.084 C 2.926,3.998 3.121,3.939 3.268,3.877 V 3.307 C 3.268,3.189 3.264,3.09 3.258,3.011 3.251,2.932 3.236,2.867 3.213,2.818 3.19,2.77 3.157,2.733 3.113,2.711 3.069,2.688 3.01,2.676 2.936,2.676 H 2.877 L 2.77,3.506 C 2.655,3.539 2.527,3.566 2.386,3.59 2.244,3.612 2.086,3.623 1.91,3.623 1.779,3.623 1.646,3.611 1.51,3.587 1.373,3.563 1.249,3.521 1.139,3.463 1.027,3.404 0.938,3.326 0.867,3.23 0.797,3.135 0.762,3.017 0.762,2.877 0.762,2.746 0.793,2.631 0.855,2.532 0.917,2.434 0.999,2.344 1.102,2.264 1.204,2.184 1.321,2.112 1.453,2.049 1.585,1.985 1.723,1.924 1.865,1.865 2.109,1.768 2.334,1.672 2.537,1.575 2.74,1.479 2.916,1.371 3.063,1.25 3.209,1.13 3.322,0.992 3.404,0.838 3.485,0.684 3.525,0.497 3.525,0.279 3.525,0.058 3.479,-0.137 3.387,-0.303 3.294,-0.469 3.168,-0.606 3.008,-0.717 2.849,-0.828 2.664,-0.911 2.454,-0.967 2.244,-1.021 2.021,-1.049 1.783,-1.049 1.464,-1.049 1.156,-1.012 0.862,-0.935 0.568,-0.857 0.28,-0.733 0,-0.561 Z"
       style="fill:#1a171b;fill-opacity:1;fill-rule:nonzero;stroke:none"
       transform="matrix(1.4123727,0,0,-1.4123727,118.33305,148.45206)"
       clip-path="url(#clipPath38)" />
    <path
       id="path39"
       d="M 0,0 C -0.176,0 -0.348,-0.034 -0.515,-0.102 -0.682,-0.168 -0.834,-0.271 -0.971,-0.41 -1.107,-0.549 -1.224,-0.724 -1.318,-0.936 -1.412,-1.148 -1.473,-1.399 -1.498,-1.689 H 1.285 C 1.275,-1.39 1.236,-1.133 1.168,-0.918 1.1,-0.705 1.008,-0.53 0.895,-0.395 0.78,-0.26 0.647,-0.16 0.496,-0.096 0.345,-0.032 0.18,0 0,0 M 1.646,-4.17 C 1.535,-4.238 1.42,-4.302 1.299,-4.361 1.179,-4.421 1.053,-4.473 0.921,-4.519 0.789,-4.563 0.65,-4.6 0.504,-4.627 0.357,-4.654 0.202,-4.668 0.039,-4.668 c -0.371,0 -0.695,0.072 -0.974,0.219 -0.278,0.146 -0.51,0.342 -0.696,0.586 -0.185,0.244 -0.324,0.526 -0.417,0.845 -0.093,0.319 -0.14,0.651 -0.14,0.997 0,0.449 0.065,0.833 0.194,1.156 0.129,0.322 0.297,0.588 0.506,0.797 0.208,0.208 0.443,0.361 0.707,0.459 0.263,0.097 0.531,0.146 0.801,0.146 0.27,0 0.521,-0.047 0.754,-0.14 C 1.008,0.305 1.21,0.159 1.383,-0.039 1.555,-0.238 1.691,-0.494 1.79,-0.809 1.889,-1.123 1.939,-1.5 1.939,-1.939 V -1.982 -2.057 C 1.939,-2.082 1.938,-2.106 1.937,-2.129 1.936,-2.152 1.934,-2.165 1.934,-2.168 h -3.448 c 0.01,-0.235 0.047,-0.47 0.111,-0.703 0.063,-0.233 0.159,-0.443 0.288,-0.631 0.129,-0.187 0.294,-0.34 0.496,-0.455 0.201,-0.116 0.447,-0.174 0.736,-0.174 0.254,0 0.49,0.04 0.706,0.121 0.216,0.082 0.416,0.176 0.599,0.283 z"
       style="fill:#1a171b;fill-opacity:1;fill-rule:nonzero;stroke:none"
       transform="matrix(1.4123727,0,0,-1.4123727,127.90526,143.36808)"
       clip-path="url(#clipPath40)" />
    <path
       id="path41"
       d="m 0,0 c 0.215,0 0.41,0.029 0.588,0.09 0.178,0.06 0.36,0.138 0.549,0.232 v 1.787 c -0.12,0 -0.244,0 -0.371,0.002 C 0.639,2.113 0.523,2.113 0.42,2.113 H 0.063 c -0.377,0 -0.678,-0.086 -0.901,-0.258 -0.223,-0.172 -0.336,-0.426 -0.34,-0.761 0,-0.183 0.036,-0.342 0.108,-0.479 0.072,-0.136 0.164,-0.251 0.276,-0.342 0.112,-0.091 0.238,-0.16 0.378,-0.205 C -0.275,0.022 -0.137,0 0,0 m -1.422,4.32 c 0.134,0.049 0.274,0.094 0.418,0.135 0.145,0.041 0.288,0.076 0.43,0.106 0.141,0.029 0.277,0.05 0.408,0.065 0.13,0.015 0.245,0.022 0.346,0.022 0.212,0 0.416,-0.025 0.613,-0.076 C 0.99,4.521 1.164,4.43 1.315,4.297 1.467,4.163 1.588,3.979 1.677,3.744 1.766,3.51 1.811,3.211 1.811,2.846 H 1.137 C 1.137,3.094 1.11,3.301 1.057,3.467 1.003,3.633 0.928,3.766 0.83,3.867 0.732,3.968 0.616,4.039 0.482,4.079 0.35,4.119 0.205,4.141 0.049,4.141 -0.033,4.141 -0.127,4.133 -0.232,4.118 -0.338,4.104 -0.449,4.083 -0.566,4.057 -0.684,4.031 -0.804,4.001 -0.926,3.967 -1.048,3.933 -1.168,3.895 -1.285,3.852 Z m 2.623,-4.711 c 0,0.02 -0.002,0.042 -0.006,0.069 -0.003,0.019 -0.006,0.043 -0.009,0.07 C 1.183,-0.225 1.18,-0.195 1.176,-0.166 0.978,-0.271 0.773,-0.358 0.563,-0.43 0.354,-0.502 0.115,-0.537 -0.152,-0.537 c -0.199,0 -0.398,0.035 -0.598,0.104 -0.2,0.07 -0.381,0.172 -0.542,0.306 -0.161,0.133 -0.292,0.299 -0.394,0.498 -0.1,0.198 -0.15,0.426 -0.15,0.684 0,0.257 0.045,0.48 0.134,0.671 0.089,0.19 0.214,0.347 0.374,0.471 0.159,0.123 0.349,0.216 0.57,0.278 0.222,0.062 0.463,0.093 0.723,0.093 H 0.121 C 0.203,2.568 0.3,2.566 0.412,2.565 0.524,2.564 0.645,2.563 0.771,2.561 0.898,2.559 1.02,2.557 1.137,2.553 V 2.846 H 1.811 V 0.121 L 2.559,0.02 V -0.045 C 2.559,-0.123 2.547,-0.185 2.526,-0.23 2.506,-0.275 2.469,-0.311 2.419,-0.335 2.369,-0.359 2.303,-0.375 2.224,-0.381 2.145,-0.388 2.045,-0.391 1.928,-0.391 Z"
       style="fill:#1a171b;fill-opacity:1;fill-rule:nonzero;stroke:none"
       transform="matrix(1.4123727,0,0,-1.4123727,134.5064,149.17476)"
       clip-path="url(#clipPath42)" />
    <path
       id="path43"
       d="M 0,0 C 0,0.117 0.029,0.199 0.09,0.244 0.15,0.29 0.248,0.328 0.385,0.357 L 0.873,0.439 V 4.273 L 0.121,4.375 v 0.068 c 0,0.078 0.012,0.141 0.035,0.186 0.023,0.046 0.059,0.081 0.108,0.105 0.049,0.025 0.113,0.04 0.192,0.047 0.079,0.006 0.179,0.01 0.296,0.01 H 1.484 C 1.49,4.713 1.498,4.636 1.508,4.561 1.515,4.496 1.521,4.428 1.525,4.355 1.53,4.284 1.536,4.223 1.543,4.17 1.819,4.408 2.091,4.596 2.357,4.732 2.625,4.869 2.885,4.938 3.139,4.938 3.275,4.938 3.402,4.926 3.518,4.905 3.633,4.885 3.741,4.855 3.842,4.82 V 4.215 C 3.842,4.088 3.839,3.98 3.832,3.895 3.826,3.809 3.811,3.739 3.786,3.688 3.762,3.635 3.727,3.598 3.682,3.574 3.636,3.552 3.574,3.541 3.496,3.541 H 3.428 L 3.324,4.313 C 3.23,4.332 3.131,4.342 3.027,4.342 2.91,4.342 2.789,4.32 2.663,4.28 2.537,4.24 2.412,4.184 2.285,4.111 2.158,4.04 2.031,3.955 1.906,3.857 1.781,3.76 1.661,3.654 1.547,3.541 V 0.426 L 2.422,0.309 V 0.244 C 2.422,0.166 2.41,0.104 2.387,0.059 2.364,0.014 2.328,-0.021 2.277,-0.046 2.227,-0.07 2.162,-0.086 2.082,-0.092 2.002,-0.099 1.904,-0.102 1.787,-0.102 H 0 Z"
       style="fill:#1a171b;fill-opacity:1;fill-rule:nonzero;stroke:none"
       transform="matrix(1.4123727,0,0,-1.4123727,138.989,149.58308)"
       clip-path="url(#clipPath44)" />
    <path
       id="path45"
       d="m 0,0 c -0.212,-0.114 -0.436,-0.208 -0.67,-0.281 -0.234,-0.073 -0.478,-0.11 -0.732,-0.11 -0.326,0 -0.629,0.053 -0.911,0.161 -0.281,0.107 -0.525,0.271 -0.732,0.491 -0.207,0.219 -0.369,0.498 -0.488,0.835 -0.119,0.337 -0.178,0.734 -0.178,1.193 0,0.463 0.062,0.853 0.186,1.17 0.123,0.317 0.29,0.575 0.5,0.773 0.21,0.2 0.451,0.342 0.722,0.43 0.272,0.088 0.558,0.133 0.858,0.133 0.234,0 0.455,-0.022 0.661,-0.065 0.206,-0.042 0.419,-0.105 0.638,-0.189 V 3.949 C -0.146,3.832 -0.15,3.734 -0.156,3.654 -0.163,3.574 -0.178,3.51 -0.201,3.461 -0.224,3.412 -0.258,3.377 -0.303,3.354 -0.349,3.331 -0.41,3.32 -0.488,3.32 H -0.557 L -0.67,4.154 C -0.783,4.188 -0.9,4.213 -1.019,4.23 -1.137,4.248 -1.266,4.258 -1.402,4.258 -1.623,4.258 -1.832,4.223 -2.029,4.154 -2.227,4.086 -2.399,3.975 -2.549,3.818 -2.699,3.662 -2.818,3.459 -2.906,3.21 -2.994,2.961 -3.037,2.656 -3.037,2.295 c 0,-0.368 0.041,-0.687 0.124,-0.955 0.083,-0.269 0.198,-0.492 0.347,-0.669 0.148,-0.177 0.324,-0.31 0.529,-0.396 0.205,-0.086 0.43,-0.129 0.674,-0.129 0.209,0 0.406,0.032 0.593,0.095 0.188,0.064 0.366,0.138 0.536,0.222 z"
       style="fill:#1a171b;fill-opacity:1;fill-rule:nonzero;stroke:none"
       transform="matrix(1.4123727,0,0,-1.4123727,150.79558,149.38168)"
       clip-path="url(#clipPath46)" />
    <path
       id="path47"
       d="M 0,0 C 0,0.117 0.031,0.199 0.091,0.244 0.15,0.29 0.25,0.328 0.387,0.357 L 0.875,0.439 V 6.637 L 0.127,6.738 v 0.065 c 0,0.078 0.012,0.139 0.035,0.185 0.023,0.045 0.059,0.08 0.108,0.105 0.048,0.024 0.113,0.04 0.192,0.046 0.079,0.007 0.179,0.009 0.296,0.009 H 1.549 V 4.424 c 0.338,0.156 0.66,0.281 0.964,0.374 0.303,0.093 0.569,0.14 0.794,0.14 0.227,0 0.429,-0.03 0.605,-0.088 C 4.088,4.791 4.235,4.699 4.355,4.573 4.477,4.447 4.567,4.286 4.629,4.088 4.691,3.889 4.723,3.649 4.723,3.369 V 0.41 L 5.465,0.309 V 0.244 C 5.465,0.166 5.453,0.104 5.433,0.059 5.412,0.014 5.375,-0.021 5.325,-0.046 5.275,-0.07 5.209,-0.086 5.13,-0.092 5.051,-0.099 4.951,-0.102 4.834,-0.102 H 4.049 V 3.307 C 4.049,3.678 3.975,3.942 3.826,4.102 3.678,4.262 3.457,4.342 3.164,4.342 3.061,4.342 2.943,4.328 2.813,4.3 2.683,4.271 2.545,4.236 2.4,4.192 2.256,4.148 2.109,4.098 1.963,4.041 1.816,3.984 1.679,3.925 1.549,3.863 V 0.406 L 2.217,0.309 V 0.244 C 2.217,0.166 2.207,0.104 2.186,0.059 2.164,0.014 2.129,-0.021 2.078,-0.046 2.027,-0.07 1.963,-0.086 1.883,-0.092 1.803,-0.099 1.705,-0.102 1.588,-0.102 H 0 Z"
       style="fill:#1a171b;fill-opacity:1;fill-rule:nonzero;stroke:none"
       transform="matrix(1.4123727,0,0,-1.4123727,151.83552,149.58308)"
       clip-path="url(#clipPath48)" />
    <path
       id="path49"
       d="M 0,0 C 0,-0.117 -0.003,-0.215 -0.01,-0.295 -0.016,-0.375 -0.031,-0.439 -0.056,-0.488 -0.08,-0.537 -0.115,-0.572 -0.16,-0.596 -0.206,-0.618 -0.268,-0.629 -0.346,-0.629 H -0.41 l -0.121,0.918 c -0.166,0.059 -0.334,0.104 -0.501,0.134 -0.167,0.03 -0.346,0.046 -0.534,0.046 -0.359,0 -0.683,-0.063 -0.973,-0.188 -0.289,-0.125 -0.537,-0.316 -0.742,-0.574 -0.205,-0.257 -0.364,-0.58 -0.476,-0.971 -0.112,-0.39 -0.169,-0.851 -0.169,-1.382 0,-0.543 0.059,-1.016 0.174,-1.417 0.115,-0.4 0.278,-0.733 0.488,-1 0.21,-0.267 0.461,-0.465 0.754,-0.595 0.293,-0.131 0.619,-0.196 0.977,-0.196 0.263,0 0.51,0.031 0.735,0.092 0.226,0.063 0.452,0.153 0.677,0.27 l 0.225,-0.449 c -0.274,-0.147 -0.553,-0.258 -0.838,-0.335 -0.286,-0.078 -0.585,-0.115 -0.901,-0.115 -0.443,0 -0.845,0.077 -1.209,0.229 -0.363,0.153 -0.675,0.385 -0.935,0.693 -0.26,0.31 -0.462,0.699 -0.606,1.168 -0.142,0.469 -0.215,1.02 -0.215,1.655 0,0.619 0.071,1.156 0.211,1.614 0.14,0.458 0.338,0.837 0.593,1.139 0.255,0.303 0.564,0.53 0.923,0.677 0.359,0.148 0.761,0.222 1.203,0.222 0.297,0 0.582,-0.035 0.856,-0.105 C -0.541,0.832 -0.27,0.729 0,0.592 Z"
       style="fill:#1a171b;fill-opacity:1;fill-rule:nonzero;stroke:none"
       transform="matrix(1.4123727,0,0,-1.4123727,171.06807,140.90744)"
       clip-path="url(#clipPath50)" />
    <path
       id="path51"
       d="M 0,0 C -0.176,0 -0.348,-0.034 -0.516,-0.102 -0.684,-0.168 -0.836,-0.271 -0.973,-0.41 -1.109,-0.549 -1.225,-0.724 -1.318,-0.936 -1.413,-1.148 -1.474,-1.399 -1.5,-1.689 H 1.283 C 1.273,-1.39 1.234,-1.133 1.166,-0.918 1.098,-0.705 1.007,-0.53 0.893,-0.395 0.779,-0.26 0.646,-0.16 0.495,-0.096 0.344,-0.032 0.179,0 0,0 M 1.645,-4.17 C 1.534,-4.238 1.419,-4.302 1.299,-4.361 1.178,-4.421 1.052,-4.473 0.92,-4.519 0.788,-4.563 0.648,-4.6 0.502,-4.627 0.355,-4.654 0.201,-4.668 0.039,-4.668 c -0.371,0 -0.696,0.072 -0.975,0.219 -0.278,0.146 -0.509,0.342 -0.695,0.586 -0.185,0.244 -0.325,0.526 -0.418,0.845 -0.093,0.319 -0.139,0.651 -0.139,0.997 0,0.449 0.065,0.833 0.193,1.156 0.128,0.322 0.297,0.588 0.505,0.797 0.209,0.208 0.445,0.361 0.709,0.459 0.263,0.097 0.53,0.146 0.801,0.146 0.269,0 0.521,-0.047 0.753,-0.14 0.233,-0.092 0.436,-0.238 0.608,-0.436 0.173,-0.199 0.308,-0.455 0.408,-0.77 0.1,-0.314 0.149,-0.691 0.149,-1.13 v -0.043 -0.075 c 0,-0.025 0,-0.049 -0.002,-0.072 C 1.934,-2.152 1.934,-2.165 1.934,-2.168 h -3.448 c 0.01,-0.235 0.046,-0.47 0.11,-0.703 0.063,-0.233 0.16,-0.443 0.288,-0.631 0.128,-0.187 0.294,-0.34 0.495,-0.455 0.202,-0.116 0.448,-0.174 0.738,-0.174 0.254,0 0.488,0.04 0.705,0.121 0.217,0.082 0.416,0.176 0.598,0.283 z"
       style="fill:#1a171b;fill-opacity:1;fill-rule:nonzero;stroke:none"
       transform="matrix(1.4123727,0,0,-1.4123727,175.42102,143.36808)"
       clip-path="url(#clipPath52)" />
    <path
       id="path53"
       d="M 0,0 C -0.148,0.16 -0.37,0.24 -0.666,0.24 -0.771,0.24 -0.89,0.227 -1.023,0.198 -1.156,0.17 -1.295,0.134 -1.44,0.088 -1.586,0.043 -1.732,-0.01 -1.88,-0.068 -2.027,-0.127 -2.167,-0.187 -2.297,-0.248 v -3.447 l 0.674,-0.098 v -0.064 c 0,-0.079 -0.012,-0.14 -0.032,-0.186 -0.021,-0.045 -0.058,-0.08 -0.108,-0.104 -0.05,-0.025 -0.116,-0.041 -0.195,-0.046 -0.079,-0.007 -0.179,-0.01 -0.296,-0.01 h -1.592 v 0.101 c 0,0.118 0.032,0.2 0.094,0.245 0.062,0.045 0.16,0.084 0.297,0.113 l 0.484,0.082 v 3.834 l -0.748,0.101 v 0.069 c 0,0.078 0.012,0.14 0.035,0.185 0.023,0.046 0.059,0.081 0.108,0.106 0.049,0.024 0.113,0.04 0.192,0.047 0.079,0.006 0.179,0.009 0.296,0.009 h 0.733 c 0.002,-0.039 0.005,-0.08 0.009,-0.123 0.003,-0.035 0.006,-0.078 0.01,-0.127 0.003,-0.048 0.008,-0.095 0.014,-0.14 0.348,0.166 0.679,0.297 0.992,0.392 0.312,0.096 0.582,0.145 0.81,0.145 0.228,0 0.43,-0.029 0.606,-0.088 C 0.262,0.689 0.409,0.598 0.529,0.472 0.65,0.346 0.741,0.185 0.803,-0.014 0.865,-0.213 0.896,-0.452 0.896,-0.732 v -2.959 l 0.743,-0.102 v -0.064 c 0,-0.079 -0.012,-0.14 -0.033,-0.186 C 1.586,-4.088 1.549,-4.123 1.499,-4.147 1.449,-4.172 1.383,-4.188 1.304,-4.193 1.225,-4.2 1.125,-4.203 1.008,-4.203 H 0.223 v 3.408 C 0.223,-0.424 0.148,-0.159 0,0"
       style="fill:#1a171b;fill-opacity:1;fill-rule:nonzero;stroke:none"
       transform="matrix(1.4123727,0,0,-1.4123727,184.80284,143.79009)"
       clip-path="url(#clipPath54)" />
    <path
       id="path55"
       d="m 0,0 c 0,0.071 0.01,0.128 0.029,0.17 0.02,0.043 0.052,0.074 0.096,0.096 0.044,0.021 0.103,0.035 0.176,0.041 0.073,0.006 0.164,0.009 0.271,0.009 H 0.713 V 1.963 L 1.387,2.031 V 0.316 H 2.809 V 0.107 c 0,-0.072 -0.01,-0.128 -0.03,-0.171 C 2.76,-0.106 2.728,-0.139 2.684,-0.159 2.64,-0.18 2.582,-0.194 2.51,-0.201 2.438,-0.207 2.35,-0.211 2.242,-0.211 H 1.387 v -2.904 c 0,-0.365 0.068,-0.632 0.205,-0.801 0.137,-0.17 0.355,-0.254 0.654,-0.254 0.124,0 0.238,0.008 0.342,0.026 0.104,0.019 0.224,0.043 0.357,0.076 L 3.057,-4.57 C 2.699,-4.668 2.37,-4.717 2.07,-4.717 c -0.247,0 -0.457,0.033 -0.629,0.102 -0.172,0.068 -0.312,0.169 -0.42,0.301 -0.107,0.131 -0.185,0.291 -0.234,0.478 -0.049,0.188 -0.074,0.401 -0.074,0.643 v 2.982 H 0 Z"
       style="fill:#1a171b;fill-opacity:1;fill-rule:nonzero;stroke:none"
       transform="matrix(1.4123727,0,0,-1.4123727,187.88138,143.27147)"
       clip-path="url(#clipPath56)" />
    <path
       id="path57"
       d="M 0,0 C -0.176,0 -0.348,-0.034 -0.515,-0.102 -0.682,-0.168 -0.834,-0.271 -0.971,-0.41 -1.107,-0.549 -1.224,-0.724 -1.318,-0.936 -1.412,-1.148 -1.473,-1.399 -1.498,-1.689 H 1.285 C 1.275,-1.39 1.236,-1.133 1.168,-0.918 1.1,-0.705 1.008,-0.53 0.895,-0.395 0.78,-0.26 0.647,-0.16 0.496,-0.096 0.345,-0.032 0.18,0 0,0 M 1.646,-4.17 C 1.535,-4.238 1.42,-4.302 1.299,-4.361 1.179,-4.421 1.053,-4.473 0.921,-4.519 0.789,-4.563 0.65,-4.6 0.504,-4.627 0.357,-4.654 0.202,-4.668 0.039,-4.668 c -0.371,0 -0.695,0.072 -0.974,0.219 -0.278,0.146 -0.51,0.342 -0.696,0.586 -0.185,0.244 -0.324,0.526 -0.417,0.845 -0.093,0.319 -0.14,0.651 -0.14,0.997 0,0.449 0.065,0.833 0.194,1.156 0.129,0.322 0.297,0.588 0.506,0.797 0.208,0.208 0.443,0.361 0.707,0.459 0.263,0.097 0.531,0.146 0.801,0.146 0.27,0 0.521,-0.047 0.754,-0.14 C 1.008,0.305 1.21,0.159 1.383,-0.039 1.555,-0.238 1.691,-0.494 1.79,-0.809 1.889,-1.123 1.939,-1.5 1.939,-1.939 V -1.982 -2.057 C 1.939,-2.082 1.938,-2.106 1.937,-2.129 1.936,-2.152 1.934,-2.165 1.934,-2.168 h -3.448 c 0.01,-0.235 0.047,-0.47 0.111,-0.703 0.063,-0.233 0.159,-0.443 0.288,-0.631 0.129,-0.187 0.294,-0.34 0.496,-0.455 0.201,-0.116 0.447,-0.174 0.736,-0.174 0.254,0 0.49,0.04 0.706,0.121 0.216,0.082 0.416,0.176 0.599,0.283 z"
       style="fill:#1a171b;fill-opacity:1;fill-rule:nonzero;stroke:none"
       transform="matrix(1.4123727,0,0,-1.4123727,196.3915,143.36808)"
       clip-path="url(#clipPath58)" />
    <path
       id="path59"
       d="M 0,0 C 0,0.117 0.031,0.199 0.091,0.244 0.15,0.29 0.25,0.328 0.387,0.357 L 0.875,0.439 V 4.273 L 0.123,4.375 v 0.068 c 0,0.078 0.011,0.141 0.033,0.186 0.024,0.046 0.059,0.081 0.108,0.105 0.049,0.025 0.113,0.04 0.193,0.047 0.08,0.006 0.178,0.01 0.295,0.01 H 1.484 C 1.491,4.713 1.5,4.636 1.51,4.561 1.516,4.496 1.521,4.428 1.526,4.355 1.531,4.284 1.537,4.223 1.543,4.17 1.82,4.408 2.092,4.596 2.359,4.732 2.626,4.869 2.887,4.938 3.141,4.938 3.277,4.938 3.402,4.926 3.519,4.905 3.635,4.885 3.742,4.855 3.844,4.82 V 4.215 C 3.844,4.088 3.84,3.98 3.834,3.895 3.827,3.809 3.812,3.739 3.787,3.688 3.763,3.635 3.728,3.598 3.682,3.574 3.637,3.552 3.574,3.541 3.496,3.541 H 3.428 L 3.326,4.313 C 3.231,4.332 3.132,4.342 3.027,4.342 2.91,4.342 2.789,4.32 2.664,4.28 2.539,4.24 2.412,4.184 2.285,4.111 2.158,4.04 2.033,3.955 1.907,3.857 1.781,3.76 1.662,3.654 1.549,3.541 V 0.426 L 2.422,0.309 V 0.244 C 2.422,0.166 2.411,0.104 2.389,0.059 2.365,0.014 2.328,-0.021 2.278,-0.046 2.229,-0.07 2.162,-0.086 2.083,-0.092 2.004,-0.099 1.904,-0.102 1.787,-0.102 H 0 Z"
       style="fill:#1a171b;fill-opacity:1;fill-rule:nonzero;stroke:none"
       transform="matrix(1.4123727,0,0,-1.4123727,200.37764,149.58308)"
       clip-path="url(#clipPath60)" />
    <path
       id="path61"
       d="m 0,0 v -2.965 h 0.796 c 0.306,0 0.581,0.028 0.825,0.084 0.244,0.055 0.452,0.142 0.623,0.259 0.171,0.117 0.302,0.268 0.395,0.45 0.093,0.183 0.139,0.401 0.139,0.655 0,0.49 -0.145,0.865 -0.437,1.125 C 2.05,-0.131 1.613,0 1.03,0 Z M 0,3.105 V 0.527 h 0.786 c 0.297,0 0.55,0.037 0.762,0.115 C 1.759,0.719 1.934,0.818 2.07,0.941 2.207,1.065 2.307,1.208 2.371,1.369 2.434,1.53 2.466,1.695 2.466,1.865 2.466,2.285 2.323,2.596 2.036,2.8 1.75,3.004 1.302,3.105 0.693,3.105 Z m -1.548,-6.5 c 0,0.116 0.031,0.197 0.093,0.243 0.062,0.045 0.161,0.082 0.298,0.111 l 0.483,0.082 v 6.088 l -0.742,0.103 v 0.063 c 0,0.078 0.011,0.141 0.032,0.185 0.021,0.046 0.057,0.082 0.107,0.106 0.05,0.024 0.116,0.04 0.195,0.047 0.08,0.006 0.179,0.01 0.296,0.01 H 0.703 C 1.527,3.643 2.134,3.49 2.524,3.186 2.915,2.881 3.11,2.449 3.11,1.889 3.11,1.739 3.092,1.588 3.054,1.436 3.017,1.282 2.957,1.135 2.874,0.993 2.791,0.852 2.682,0.72 2.549,0.598 2.416,0.476 2.252,0.371 2.061,0.283 2.497,0.149 2.833,-0.064 3.069,-0.359 3.305,-0.654 3.423,-1.041 3.423,-1.52 3.423,-2.167 3.206,-2.658 2.771,-2.994 2.336,-3.329 1.696,-3.496 0.85,-3.496 h -2.398 z"
       style="fill:#1a171b;fill-opacity:1;fill-rule:nonzero;stroke:none"
       transform="matrix(1.4123727,0,0,-1.4123727,9.6542553,161.73725)"
       clip-path="url(#clipPath62)" />
    <path
       id="path63"
       d="M 0,0 C -0.176,0 -0.348,-0.034 -0.515,-0.102 -0.683,-0.168 -0.835,-0.271 -0.972,-0.41 -1.108,-0.549 -1.224,-0.724 -1.318,-0.936 -1.413,-1.148 -1.473,-1.399 -1.499,-1.689 H 1.284 C 1.274,-1.39 1.235,-1.133 1.167,-0.918 1.099,-0.705 1.007,-0.53 0.894,-0.395 0.78,-0.26 0.647,-0.16 0.496,-0.096 0.344,-0.032 0.179,0 0,0 M 1.646,-4.17 C 1.535,-4.238 1.419,-4.302 1.299,-4.361 1.178,-4.421 1.052,-4.473 0.92,-4.519 0.789,-4.563 0.649,-4.6 0.503,-4.627 0.356,-4.654 0.202,-4.668 0.039,-4.668 c -0.371,0 -0.696,0.072 -0.974,0.219 -0.278,0.146 -0.51,0.342 -0.696,0.586 -0.185,0.244 -0.325,0.526 -0.417,0.845 -0.093,0.319 -0.14,0.651 -0.14,0.997 0,0.449 0.065,0.833 0.193,1.156 0.129,0.322 0.297,0.588 0.506,0.797 0.208,0.208 0.444,0.361 0.708,0.459 0.263,0.097 0.531,0.146 0.801,0.146 0.27,0 0.521,-0.047 0.754,-0.14 C 1.007,0.305 1.209,0.159 1.382,-0.039 1.554,-0.238 1.69,-0.494 1.79,-0.809 1.889,-1.123 1.938,-1.5 1.938,-1.939 v -0.043 -0.075 c 0,-0.025 0,-0.049 -0.002,-0.072 C 1.935,-2.152 1.934,-2.165 1.934,-2.168 h -3.448 c 0.01,-0.235 0.047,-0.47 0.11,-0.703 0.064,-0.233 0.16,-0.443 0.288,-0.631 0.129,-0.187 0.294,-0.34 0.496,-0.455 0.202,-0.116 0.448,-0.174 0.737,-0.174 0.254,0 0.489,0.04 0.706,0.121 0.216,0.082 0.416,0.176 0.598,0.283 z"
       style="fill:#1a171b;fill-opacity:1;fill-rule:nonzero;stroke:none"
       transform="matrix(1.4123727,0,0,-1.4123727,18.978034,160.31655)"
       clip-path="url(#clipPath64)" />
    <path
       id="path65"
       d="M 0,0 C 0,0.117 0.03,0.199 0.09,0.244 0.15,0.29 0.249,0.328 0.386,0.357 L 0.874,0.439 V 4.273 L 0.122,4.375 v 0.068 c 0,0.078 0.011,0.141 0.034,0.186 0.023,0.046 0.059,0.081 0.108,0.105 0.049,0.025 0.113,0.04 0.193,0.047 0.079,0.006 0.178,0.01 0.295,0.01 H 1.484 C 1.491,4.713 1.499,4.636 1.509,4.561 1.515,4.496 1.521,4.428 1.526,4.355 1.531,4.284 1.537,4.223 1.543,4.17 1.82,4.408 2.091,4.596 2.358,4.732 2.625,4.869 2.886,4.938 3.14,4.938 3.276,4.938 3.402,4.926 3.518,4.905 3.634,4.885 3.742,4.855 3.843,4.82 V 4.215 C 3.843,4.088 3.839,3.98 3.833,3.895 3.827,3.809 3.811,3.739 3.787,3.688 3.762,3.635 3.727,3.598 3.682,3.574 3.636,3.552 3.574,3.541 3.496,3.541 H 3.428 L 3.325,4.313 C 3.231,4.332 3.131,4.342 3.027,4.342 2.91,4.342 2.789,4.32 2.664,4.28 2.538,4.24 2.412,4.184 2.285,4.111 2.158,4.04 2.032,3.955 1.907,3.857 1.781,3.76 1.662,3.654 1.548,3.541 V 0.426 L 2.422,0.309 V 0.244 C 2.422,0.166 2.411,0.104 2.388,0.059 2.365,0.014 2.328,-0.021 2.278,-0.046 2.228,-0.07 2.162,-0.086 2.083,-0.092 2.003,-0.099 1.904,-0.102 1.787,-0.102 H 0 Z"
       style="fill:#1a171b;fill-opacity:1;fill-rule:nonzero;stroke:none"
       transform="matrix(1.4123727,0,0,-1.4123727,22.837202,166.53155)"
       clip-path="url(#clipPath66)" />
    <path
       id="path67"
       d="M 0,0 C 0,0.117 0.03,0.199 0.09,0.244 0.15,0.29 0.249,0.328 0.386,0.357 L 0.874,0.439 V 6.637 L 0.127,6.738 v 0.065 c 0,0.078 0.011,0.139 0.034,0.185 0.023,0.045 0.059,0.08 0.108,0.105 0.048,0.024 0.113,0.04 0.192,0.046 0.08,0.007 0.179,0.009 0.296,0.009 H 1.548 V 0.426 L 2.417,0.309 V 0.244 C 2.417,0.166 2.406,0.104 2.385,0.059 2.364,0.014 2.328,-0.021 2.278,-0.046 2.228,-0.07 2.162,-0.086 2.083,-0.092 2.003,-0.099 1.904,-0.102 1.787,-0.102 H 0 Z"
       style="fill:#1a171b;fill-opacity:1;fill-rule:nonzero;stroke:none"
       transform="matrix(1.4123727,0,0,-1.4123727,29.106019,166.53155)"
       clip-path="url(#clipPath68)" />
    <path
       id="path69"
       d="m 0,0 c -0.077,-0.078 -0.115,-0.221 -0.115,-0.426 0,-0.103 0.009,-0.189 0.027,-0.258 0.018,-0.068 0.047,-0.123 0.088,-0.164 0.041,-0.041 0.095,-0.07 0.164,-0.088 0.068,-0.017 0.154,-0.027 0.258,-0.027 0.205,0 0.347,0.039 0.425,0.115 0.078,0.077 0.117,0.217 0.117,0.422 C 0.964,-0.221 0.925,-0.078 0.847,0 0.769,0.078 0.627,0.117 0.422,0.117 0.217,0.117 0.077,0.078 0,0 M 0.764,-6.553 1.638,-6.67 V -6.734 C 1.638,-6.813 1.627,-6.874 1.604,-6.92 1.581,-6.965 1.544,-7 1.494,-7.024 1.444,-7.049 1.378,-7.064 1.299,-7.07 1.219,-7.077 1.122,-7.08 1.008,-7.08 h -1.792 v 0.101 c 0,0.118 0.031,0.2 0.091,0.245 0.06,0.046 0.158,0.084 0.295,0.113 l 0.488,0.082 v 3.834 l -0.747,0.101 v 0.069 c 0,0.078 0.011,0.14 0.032,0.185 0.021,0.046 0.057,0.081 0.107,0.106 0.051,0.024 0.116,0.04 0.196,0.047 0.079,0.006 0.178,0.009 0.295,0.009 h 0.791 z"
       style="fill:#1a171b;fill-opacity:1;fill-rule:nonzero;stroke:none"
       transform="matrix(1.4123727,0,0,-1.4123727,34.59761,156.67531)"
       clip-path="url(#clipPath70)" />
    <path
       id="path71"
       d="M 0,0 C -0.148,0.16 -0.37,0.24 -0.667,0.24 -0.771,0.24 -0.89,0.227 -1.023,0.198 -1.156,0.17 -1.295,0.134 -1.44,0.088 -1.585,0.043 -1.732,-0.01 -1.88,-0.068 -2.028,-0.127 -2.167,-0.187 -2.297,-0.248 v -3.447 l 0.673,-0.098 v -0.064 c 0,-0.079 -0.01,-0.14 -0.031,-0.186 -0.021,-0.045 -0.057,-0.08 -0.108,-0.104 -0.05,-0.025 -0.115,-0.041 -0.195,-0.046 -0.08,-0.007 -0.178,-0.01 -0.295,-0.01 h -1.592 v 0.101 c 0,0.118 0.031,0.2 0.093,0.245 0.062,0.045 0.161,0.084 0.297,0.113 l 0.484,0.082 v 3.834 l -0.747,0.101 v 0.069 c 0,0.078 0.011,0.14 0.034,0.185 0.023,0.046 0.059,0.081 0.107,0.106 0.049,0.024 0.114,0.04 0.193,0.047 0.08,0.006 0.178,0.009 0.296,0.009 h 0.732 c 0.003,-0.039 0.006,-0.08 0.01,-0.123 0.003,-0.035 0.006,-0.078 0.01,-0.127 0.003,-0.048 0.008,-0.095 0.014,-0.14 0.348,0.166 0.679,0.297 0.991,0.392 0.313,0.096 0.583,0.145 0.811,0.145 0.228,0 0.43,-0.029 0.605,-0.088 C 0.261,0.689 0.409,0.598 0.53,0.472 0.65,0.346 0.741,0.185 0.803,-0.014 0.865,-0.213 0.896,-0.452 0.896,-0.732 v -2.959 l 0.742,-0.102 v -0.064 c 0,-0.079 -0.011,-0.14 -0.032,-0.186 C 1.585,-4.088 1.549,-4.123 1.499,-4.147 1.449,-4.172 1.383,-4.188 1.304,-4.193 1.224,-4.2 1.125,-4.203 1.008,-4.203 H 0.222 v 3.408 C 0.222,-0.424 0.148,-0.159 0,0"
       style="fill:#1a171b;fill-opacity:1;fill-rule:nonzero;stroke:none"
       transform="matrix(1.4123727,0,0,-1.4123727,43.366326,160.73856)"
       clip-path="url(#clipPath72)" />
    <rect
       style="fill:#f1f1f1;fill-opacity:1;stroke-width:0.264583"
       id="rect2"
       width="10.067796"
       height="5.0338979"
       x="180.10449"
       y="159.82628" />
  </g>
</svg>
